<svg id="Layer_1" data-name="Layer 1" xmlns="http://www.w3.org/2000/svg" xmlns:xlink="http://www.w3.org/1999/xlink" viewBox="0 0 4652.76 7744.16"><defs><style>.cls-1{fill:none;}.cls-2{clip-path:url(#clip-path);}.cls-3{fill:#161b21;}.cls-4{fill:#495f76;}.cls-5{fill:#f4a850;}</style><clipPath id="clip-path" transform="translate(-2030.9 -192.63)"><rect class="cls-1" width="8000" height="8000"/></clipPath></defs><title>LOGO_CAT</title><g class="cls-2"><path class="cls-3" d="M2252.58,7934.49l-.44-2.07-.13-.67c-.26-1.3-.52-2.59-.74-3.89l-.09-.56-.32-2.54-.11-1.56c0-1.31,0-2.61,0-3.91v-.72l0-.81v-.57c-.07-2.91-.14-6.53-.35-9.94l0-.57,0-.67c-.18-2.91-.44-6-.78-9.21s-.71-6.33-1.17-9.42c.06-2.59.06-5.18.07-7.78v-5c0-6.94.09-14.32.28-21.73s.27-15.12.31-22.18l0-3,0-2.79c-.39-12.95-.76-23.73-1.16-33.93q-1.59-42.36-3.36-84.62l0-.76q-1.73-42.61-3.39-85.29c-.77-21.51-1.46-43.36-2.15-64.64l-.2-6.38c-.9-28.52-1.84-58-3-87-1.32-35.95-2.94-73.07-4.36-105.83v-.23c-1.08-24.71-2.19-50.27-3.2-75.43-.75-19-1.37-38.68-1.92-56.08l0-1.67c-.57-17.86-1.15-36.33-1.87-54.4-.77-21.52-1.67-43.42-2.53-64.6l-.16-3.83,0-.63c-1.1-27-2.24-54.88-3.18-82.45-.82-21.38-1.44-43-2.05-63.87l0-1.09c-.48-16.81-1-34.19-1.6-51.27-1.52-43.73-3.25-88.31-4.94-131.43l-.21-5.22v-.24q-1.11-27.39-2.12-54.74l-.24-6.34q-.93-24.33-1.9-48.67c-1.57-39.5-3.09-79.95-4.56-119.07l-.32-8.69-.3-7.85q-1-28.38-1.89-56.73l0-1.46q-.93-29.06-1.94-58.12-1.43-37.75-3-75.56l0-.45q-1.53-38.33-3-76.5-.59-16.34-1.11-32.68c-.92-27.48-1.87-55.73-3.08-83.42-.8-20.78-1.72-41.84-2.62-62.22l-.13-2.91-.05-1.27c-1.21-27.38-2.45-55.71-3.42-83.64-.73-19.61-1.21-39.56-1.67-58.85-.43-18.17-.93-38.77-1.68-58.85q-1.6-42.21-3.35-84.34l0-1-.27-6.54q-1.59-39.37-3.13-78.8c-.78-21.77-1.49-44-2.17-65.44l-.18-5.55v-.28c-.9-28.46-1.83-57.91-2.94-86.72-1.1-30-2.44-60.44-3.74-89.91l0-.45c-1.24-28.05-2.65-59.84-3.8-91.14-.71-19-1.22-38.51-1.68-55.76-.48-18.24-1-36.93-1.66-55.24-.87-23.25-2-46.93-2.94-67.82s-2.08-44.59-3-67.74c-.65-17.34-1.16-35.1-1.67-52.26l-.09-3.27,0-1.15c-.53-17.87-1.06-36.33-1.74-54.39q-1.18-28.17-2.5-56.29l-.13-2.77c-1.11-24.61-2.27-50.06-3.27-75.25-.53-16.78-.93-33.92-1.31-50.51l0-1.77c-.49-21.55-1-43.66-1.81-65.34-1-25.6-2.12-51.62-3.22-76.78v-.32l0-.36c-1.34-31-2.73-63-3.92-94.64-.9-24-1.59-48.46-2.26-72.14-.54-19.4-1.15-41.26-1.91-62.45q-.95-24.73-2-49.43l-.4-9.55c-1.59-39-3.24-79.44-4.62-119.75-.72-18.36-1.31-37-1.9-56.07l-.13-4.09c-.54-17.07-1.11-34.73-1.8-52-1.08-29.66-2.35-60-3.49-86.84l-.29-7.2q-1.14-27.33-2.24-54.67-.36-9-.66-18.09l0-1.14c-.12-2.73-.25-5.46-.37-8.19-.94-19-2-38.3-3-57.05l-.25-4.58-.11-2.21c-1.39-25.69-2.82-52.26-4-78.44-.91-17.34-1.52-35-2.12-52.15l-.08-2c-.38-11-.76-22-1.22-33-1.17-27.29-2.57-56-3.68-79L2090,3634.5q-1.19-26.37-2.51-52.85l-.45-9.36q-.56-11.33-1.1-22.68c-.45-9.41-.89-18.89-1.33-28.36a55,55,0,0,0,1.67-16.44c-.27-5.42-.84-10.92-1.39-16.23l-.13-1.12c-.12-1.65-.24-3.32-.35-5s-.24-3.35-.38-5c-.09-1.24-.21-2.48-.32-3.71-.23-2.41-.46-4.9-.56-7.36-.16-4-.22-8.08-.27-12,0-2.33-.07-4.67-.12-7-.15-6.44-.47-12.72-.94-18.69-.09-1-.19-2-.29-3.07-.19-1.88-.38-3.82-.47-5.73s0-3.93.22-6.14c.13-1,.25-2.1.37-3.14l.15-1.32c.33-2.77.69-5.91.78-9,0-1.39.08-2.68.17-3.94l-.1,1.1-.25,2.3a120,120,0,0,0,.72-15.46c-.09-3.4-.18-6.8-.25-10.19-.07-3.16.09-6.35.24-9.43l.06-1.27c.09-1.76.11-3.53.14-5.3,0-1.58,0-3.18.11-4.77.47-6.5.72-11.94.8-17.11a126.73,126.73,0,0,0-1-15.54l-.1-.94c-.06-1.41-.09-2.84-.12-4.25,0-1.7-.08-3.4-.17-5.09l0-.62c-.15-2.83-.31-5.76-.31-8.61.07-1.85.13-3.7.19-5.54v-.24l0-.89,0-.93.06-2c0-1.43.09-2.85.12-4.28s.15-2.67.25-4c.15-2.33.32-4.74.28-7.15,0-1,0-2.08-.08-3.12,0-1.53-.11-3.06-.08-4.59,0-3.43-.05-7-.28-11.33-.19-3.52-.26-7.11-.34-10.58q-.06-3.49-.18-7c-.24-6.91-.65-12.28-1.31-17.39-.35-2.76-.78-5.52-1.22-8.28-.54-3.42-1.1-7-1.49-10.46-.36-3.19-.72-6.39-1.13-9.57-.57-14.43-1.12-29.5-1.62-44.79-1.1-28.74-2-58.11-2.94-86.52v-.24l0-1.2c-.73-23-1.48-46.71-2.33-70-1.06-26.67-2.29-54.26-3.38-78.61l0-1.14c-1.48-33.23-3-67.59-4.25-101.46-1-22.82-1.58-46.09-2.15-68.6l0-.7c-.32-12.86-.7-27.44-1.16-41.7-1.18-35-2.62-71.69-3.78-101.17q-.73-18.66-1.46-37.34c-.77-21.71-1.63-43.36-2.59-67.37l-.41-10.54q-.59-15.08-1.18-30.21c-1.28-32.74-2.41-66.11-3.51-98.37l0-.33q-.65-19.21-1.32-38.39c-.69-19.08-1.39-38.26-2.1-57.42l-.51-13.78q-.8-21.86-1.59-43.63-.63-17.07-1.24-34.13l-.09-2.32-.1-2.71c-1.37-37.66-2.79-76.61-4.54-114.62-.43-8.51-1.44-17-2.42-25.1l0-.22c-.51-4.29-1-8.56-1.46-12.84.6-1.59,1.16-3.07,1.74-4.58-.41-3.54-.75-6.84-1-10.08a272.21,272.21,0,0,1-.55-33.69c.48-11.29,1.26-22.75,2-33.84l0-.45c.68-9.81,1.28-18.65,1.72-27.47.16-3.52.31-7,.45-10.52l.12-3v-.31c.3-7.54.61-15.33,1-23,.41-7.44,1.09-14.95,1.69-21.59q.42-4.62.81-9.24l.92-11c1.42-16.81,3-35.86,4.4-54.59,1.58-21.32,3.75-42.94,6.64-66.07.81-6.45,1.56-12.9,2.3-19.36l.22-1.93c1.73-15,3.51-30.56,5.95-45.75.67-4.08,1.4-8.15,2.12-12.23l.23-1.27.06-.32.11-.57-.11,1s0,.16,0,.16,0,.12,0,.12l-.11.86c4-22.11,9.37-43.74,15.45-67.71,4.21-16.6,8.81-33.43,13.26-49.69l.14-.5q1.9-6.93,3.79-13.86c3.19-11.73,7-23.39,10.68-34.67l.15-.49c.37-1.14.74-2.3,1.12-3.45l.41-1.23.17-.54.31-1,.82-2.51q1.37-4.24,2.75-8.48L2109,1441c6-18.7,14.29-43.22,25.45-67.25,5.94-12.81,11.6-23.9,17.3-33.89q3.14-5.5,6.34-11c.4-1.09.82-2.17,1.23-3.25.86-2.16,1.9-4.49,3.3-7.36l.15-.33.48-1c2.4-5,5.2-10.26,8.83-16.4,3.21-5.44,6.47-10.86,9.73-16.28l.27-.45.27-.44c1.76-3.41,3.5-6.67,5.17-9.65,3-5.4,6-10.79,9.11-16.15,2.72-4.75,5.72-9.78,9.73-16.29,2.4-3.9,4.41-7.14,6.55-10.38,1.05-1.6,2.21-3.26,3.53-5.05q5.23-11.17,10.52-22.37c5.7-7.43,11.55-14.83,17.4-22,15.23-18.58,30.52-38.41,44-55.91,23.67-30.68,48.08-62.31,74.36-91.23,45.67-50,94.21-98.82,141.16-146,16.62-16.71,35.34-35.55,53.62-54.15a477,477,0,0,1,36.33-32.92c34.89-29.08,70.06-57.76,104.54-85.23,30-23.49,55.22-42.46,79.46-59.69,37.21-26.74,68.28-48,97.77-66.81q15.9-10.12,31.75-20.33c42.17-27.09,85.78-55.11,130.46-79.39A2325.22,2325.22,0,0,1,3258.4,383.64c75.14-31.28,141.93-56.19,204.15-76.15,42-13.43,87.27-26.65,134.55-39.3,16.37-4.33,33.19-7.65,49.46-10.86,14.36-2.84,29-5.73,43.36-9.28,8.66-2.21,17.59-3.62,26.22-5,9.05-1.4,19.2-3,28.39-5.58,25.38-7.36,51.65-11.07,77.07-14.66l.4-.05c16.93-2.39,34.44-4.86,51.46-8.4,27-5.61,55-7.85,82.14-10l.61-.06c25.34-2,51.3-3.25,76.39-4.42l5.27-.24,10.23-.5c3.36-.12,6.88-.18,11.08-.18,2.39,0,4.78,0,7.19,0H4068c3.09,0,6.07.06,9,.06,4.26,0,7.74-.05,10.92-.17,1.43,0,2.74-1.35,4.12-2.78a23.16,23.16,0,0,1,2-1.88h10.79c59.42,0,117.57.1,175.59,1.23,10,2.1,17.82,3.45,26,3.68,1.34,0,2.68,0,4,0,4.73,0,9.56-.09,14.24-.19h.72l.74,0h.51c4.89-.11,9.94-.22,15-.22,7.14,0,13,.22,18.43.66,14.33,1.25,28.73,3.22,42.66,5.12l.27,0c10.23,1.4,21.81,3,33,4.18,12.43,1.46,25.1,2.32,37.37,3.15l.53,0c8.47.58,17.24,1.18,25.86,2l1,.1c13.7,1.45,27.75,2.92,41.2,5.3,10.12,1.93,20.35,4.08,30.23,6.16l.72.15c12.57,2.64,25.56,5.38,38.45,7.69,9.72,1.85,19.63,3.18,29.2,4.47,12.21,1.64,24.85,3.34,37.13,6.09,18.3,4,36.71,9,54.53,13.86l.33.08c12.66,3.45,25.74,7,38.66,10.16,44.79,10.69,92.24,24.42,149.32,43.22,58.2,19.12,110.54,36.8,161.49,59.69,16.88,7.63,34.39,14.62,51.32,21.39l.55.22c25.4,10.14,51.66,20.63,76.34,33.42,13,6.78,26.73,13.62,38.8,19.66l.55.28c23.06,11.54,46.91,23.49,69.89,36.55q15,8.55,29.93,17l.35.2c35.27,20,71.72,40.74,106.85,62.59,54.51,34.23,105.71,70.76,162.2,111.52,53.76,38.54,109,83.32,179.08,145.18,45.84,40.45,90.46,85.62,128.69,124.78,26.27,26.8,51.64,55.17,76.18,82.6l.3.34q12.38,13.81,24.77,27.59c11.86,13,27.31,30.34,41.49,48.4,25,32.31,57.78,75,89.3,118.39,18.27,24.86,37,51.87,58.83,85,47.62,71.81,84,131.68,114.39,188.4,33.73,63,58.61,112.13,80.63,159.17,22,46.68,47.21,102.15,68,159.67,5.16,14.29,10.71,28.72,16.07,42.67l.09.24.26.68c7,18.16,14.19,36.94,20.62,55.64,17.2,50.63,30.53,92.47,41.95,131.66,6.32,21,11.44,42.8,16.39,63.89l.06.22.37,1.64c2.29,9.7,4.64,19.74,7.09,29.56,2.17,8.64,4.48,17.26,6.85,26.06,1.66,6.2,3.33,12.4,4.94,18.61,1.06,3.49,2.16,7,3.25,10.48,2.48,7.88,4.89,15.77,7.3,23.67l.68,2.2q2.52,8.3,5.07,16.57l1.47,4.71,1.25,4q1.92,6,3.77,12.1c1.84,6,3.6,12.49,5.71,21,2,8,4.17,16.08,6.27,23.84,1.58,5.86,3.16,11.72,4.68,17.6.45,1.78.92,3.54,1.39,5.3l.16.63.23.85c1,3.84,2.05,7.8,3,11.72,1.57,6.78,3,13.85,4.36,21q.55,3.08,1.1,6.15l.35,1.91.24,1.39c.71,4,1.41,8,2.19,11.93.56,2.85,1.15,5.71,1.74,8.57l.24,1.13.07.35c.83,4,1.69,8.09,2.45,12.14,1.89,10.15,3.52,20.61,5,29.83l.12.77q.83,5.34,1.69,10.69c3.2,19.79,5.66,40.22,7.54,62.45l-.12-.57c.73,7.88,1.27,15.61,1.75,22.77q.2,3,.36,5.93c1.84,13.45,3.76,27.91,5.29,42.49l.14,1.35c1.44,13.79,3.09,29.43,4.2,44.46l.09,1.25.09,1.2c.64,5.52,1.13,10.2,1.53,14.74.46,5.57.76,11.24,1.06,16.74l0,.3c.25,4.86.57,10.92,1.06,16.65l-.18-1a387.73,387.73,0,0,1,2,39c-.06,6.47-.18,12.94-.32,19.4-.09,4-.33,8.12-.59,12.3l-.07,1.13c-.11,1.91-.23,3.81-.32,5.73-.09,2.48-.15,5-.19,7.46-.07,3.27-.14,6.46-.3,9.6s-.45,6.62-.71,9.84l-.08,1,0,.24c-.22,2.64-.44,5.26-.61,7.89l-.15,2.21c-.36,5.68-.74,11.54-1.48,17.34-.71,5.56-1.56,11.28-2.52,17-.15,6.23-.42,13.61-1.19,21.07-.58,5.4-1.44,10.87-2.27,16.14l-.08.56-.45,2.84-.33,2.12c-.82,5.21-1.74,11.11-2.72,16.81-2.33,13.5-4.85,27-7.29,40.1l-.05.32-.83,4.47c-.86,4.64-1.93,10.4-3.08,15.81-1,4.53-2.11,9-3.1,12.78-.69,4.56-1.55,9.19-2.38,13.67l-.05.31-.79,4.35.11-1.09c-2.85,16.13-5.93,30.22-9.37,43.11-3.55,13.33-7.47,27.66-12.09,42.1l-.28.85-.41,1.28v-.31c-.77,2.65-1.62,5.28-2.48,7.9-1.85,5.87-3.5,11.92-5.11,17.77-1,3.87-2.07,7.63-3.15,11.37-3.07,10.6-6.7,21.24-10.18,31.16-2.26,6.5-4.76,13.05-7.19,19.38-1.29,3.39-2.53,6.64-3.75,9.89-2.84,7.62-5.8,16-9.28,26.37-4.3,12.82-9.36,25.58-14.26,37.93l-1.11,2.85c-3,7.54-5.89,14.25-8.89,20.53l-3.48,7.4-.74,1.57c-2.15,4.57-4.3,9.15-6.5,13.7l.31-.79c-2,4.28-4.19,8.69-6,12.24-1.16,2.3-2.31,4.59-3.44,6.9s-2.06,4.47-3.07,6.71c-.92,2-1.84,4.06-2.78,6.09-2.55,5.52-5.23,10.86-7.75,15.8-1.46,2.88-3.06,5.74-4.59,8.51l-.13.22c-.64,1.15-1.28,2.3-1.91,3.45-1.68,3.08-4.23,7.71-7,12.35-4.65,7.67-9.62,15.82-14.91,23.69q-8.64,12.87-17.32,25.71c-2.6,3.86-5.47,8.06-8.48,12.41-2.84,5.59-5.8,10.87-8.79,15.71-3.6,5.82-7.7,11.41-11.68,16.81-1,1.43-2.08,2.84-3.11,4.27l-1,1.31c-1.94,2.66-3.94,5.42-5.84,8.18l-2.3,3.39c-1.47,2.17-2.94,4.34-4.44,6.49-2.55,3.64-5.35,7.13-7.75,10.06-2.85,3.49-5.52,7-7.53,9.72-1.6,2.14-3.17,4.29-4.75,6.45-3.34,4.57-6.81,9.31-10.4,13.81-2.76,3.43-5.72,6.82-8.81,10.07s-6.29,6.21-9.36,9c-2,2.62-4,5.18-6,7.74-3.76,4.75-7.56,9.34-11.45,14-3.31,4-7,8.25-11.18,13l-.65.72-.31.36c-5.08,6.74-10.4,13.33-15.86,20.06-3.15,3.87-6.48,8.07-10.79,13.59l-.91,1.17c-1.35,1.75-2.7,3.5-4.07,5.24l-.9,1.16-1.47,1.88-.25.31c-.67.86-1.36,1.74-2.11,2.55l-1,1.4-1,1.4c-2.76,3.66-5.68,7.32-8.93,11.19-4.13,4.9-8.59,9.67-12.91,14.27-1.8,1.92-3.59,3.82-5.36,5.76-9,9.74-16.72,18.3-23.75,26.17-3.6,4-7.24,8-10.88,12-4.19,4.6-8.52,9.35-12.71,14.09l-.56.62c-.47.54-.94,1.08-1.42,1.61l-.28.33-1.45,1.66q-2.93,3.33-5.86,6.67l-.25.28c-4.21,4.8-8.57,9.62-12.78,14.28l-2.34,2.59-.88,1-1.09,1.2c-2.33,2.77-4.92,5.77-7.91,9.16-4.53,5.19-9.22,10.22-14,15.35-5.67,6-10.88,11.49-15.93,16.64-2.26,2.3-4.48,4.62-6.7,6.95-3.39,4.07-6.73,8.19-10.06,12.31-2.25,2.77-4.5,5.55-6.76,8.31-4.23,5-8.65,10-12.92,14.83-4,4.51-8.14,9.19-12.11,13.87s-8.12,9.64-12.16,14.47l-1.94,2.33c-11.45,12.22-22.92,24.54-34.1,36.57-15.34,16.47-31.19,33.51-46.9,50.17-28.48,30.44-57.72,61.24-83.52,88.42l-.75.8q-20.38,21.46-40.75,43c-12.71,13.45-25.59,27.24-38,40.59l-1.56,1.67c-12.79,13.73-26.37,28.29-39.58,42.26l-2.76,2.95-2.27,2.41c-29.55,31.53-60.13,64.13-90.36,96.11l-1.85,1.94c-24.57,25.91-50,52.71-74.89,79.26-23,24-45.91,48.44-68.1,72.07l-6.67,7.08-20,21.26q-9.1,9.69-18.18,19.39l-4.42,4.74c-18,19.28-38.49,41.15-58.34,62-14.4,15.23-29.09,30.62-43.29,45.49l-2.25,2.36-1.23,1.28c-19.21,20.12-39.07,40.93-58.46,61.62-13.49,14.32-27.06,29.11-40.19,43.4l-.49.54-.47.5c-13.13,14.32-26.71,29.12-40.22,43.46q-30,31.89-60.1,63.63l-7.41,7.84q-33.69,35.61-67.36,71.32-28.2,30-56.38,60.11l-3.58,3.83q-30.9,33-61.82,65.92c-20.76,21.91-42,44.09-63.71,66.78l-2.48,2.6c-20.08,21-40.86,42.69-61.22,64.2-15.67,16.67-31.85,34.21-46.13,49.69s-30.31,32.87-46.13,49.7c-15.56,16.57-31.37,33.11-49,51.47-11.79,13.58-24.77,27.39-39.65,42.21q-3.81,3.74-7.64,7.44c-14.88,15.87-30.05,32.24-44.32,47.66l-.67.72c-15.14,16.34-30.78,33.23-46.32,49.78q-22.91,24.27-45.89,48.42c-24.16,25.44-49.14,51.74-73.68,78.05-19.34,20.49-38.62,41.16-60,64.11-15.42,16.55-32.9,35.31-49.85,53.34q-26.94,28.44-55.2,57.92l-.18.18c-23.59,24.69-48,50.21-71.83,75.56-17,17.92-33.91,36.29-50.25,54.05-13.66,14.84-27.78,30.2-42,45.34-23.41,24.75-47.89,50.45-69,72.6l-.59.61c-22.15,23.27-45.06,47.33-67.48,71-12.09,12.88-24.32,26.06-36.14,38.83l-2.2,2.37c-17,18.36-36.28,39.17-55.17,59-17.1,18.2-35,36.93-50.86,53.46-14.18,14.81-28.85,30.13-43.38,45.52-15.27,16.27-30.65,32.87-45.53,48.94l-.9,1-2.3,2.49c-14.57,15.72-29.63,32-44.58,47.9q-22.85,24.21-45.78,48.3l-2.06,2.17c-23.56,24.81-47.92,50.47-71.72,76-21,22.18-42.88,45.73-60.51,64.66l-1.31,1.39c-15.72,16.88-32,34.33-48,51.41q-22.41,23.55-44.91,47.08l-.21.21c-26.85,28.11-54.63,57.16-82.09,86.37-17.46,18.41-35.64,38.17-50.25,54.05l-.71.77c-13.49,14.67-27.46,29.84-41.31,44.57-22.06,23.3-43.88,46.23-68.07,71.64l-1.35,1.41c-22.2,23.32-45.16,47.44-67.63,71.19-13.9,14.81-27.7,29.73-43,46.29-16.45,17.77-33.46,36.16-50.3,54-14.47,15.28-29.21,30.65-43.47,45.52l-1.16,1.2c-15.4,16.05-32.87,34.24-49.8,52.18-15.2,16.19-30.12,32.3-46.65,50.16-14.44,15.58-30.8,33.25-46.66,50.15q-21.16,22.43-42.38,44.72l-3.22,3.39c-22.9,24.11-48.87,51.43-74,78.35-19.07,20.19-38.43,41-57.16,61l-3.36,3.62c-15,16.13-32.46,34.84-49.33,52.79q-18.87,19.84-37.83,39.66l-7.87,8.25c-25.17,26.35-53.69,56.2-81.51,85.75-18.18,19.08-36.1,38.54-53.43,57.38l-4.28,4.65q-9.55,10.38-19.15,20.75c-31.79,33.95-63.72,67.6-94.6,100.13l-2,2.17c-10.63,11.27-21.47,22.59-32,33.53-15,15.71-30.61,32-45.74,48.29-2.53,2.73-5.06,5.64-7.73,8.9-2.56,2.81-5.29,5.93-8.11,9.28-.74.6-1.46,1.26-2.16,1.93l-.82.8-.44.43q-1.87,1.88-3.69,3.83l-.29.3c-.85.93-1.71,1.85-2.55,2.78-1.38,1.49-2.73,3-4.09,4.48l-.24.27c-1.18,1.29-2.38,2.57-3.58,3.85l-1.92,2.06-.9,1-.43.46c-.9,1-1.66,1.9-2.32,2.78a3.86,3.86,0,0,1-.46,0,6.94,6.94,0,0,1-3.07-.61" transform="translate(-2030.9 -192.63)"/><path class="cls-4" d="M2435.76,6784.75a1.41,1.41,0,0,1-1.06-.56,1.81,1.81,0,0,0-.18-.21l.12.13c-1.23-1.45-2.42-2.92-3.63-4.39l0,0,0-.06,0,0-.06-.07,0,0,0,0-.67-.81.07.08-.09-.11h0s0,0,0,0h0s0,0,0,0l-.07-.09,0,0-.32-.39h0l-.22-.26,0,0-.17-.2.09.11c-.55-.63-1.11-1.26-1.68-1.87l-1-1.05a7.75,7.75,0,0,1-.9-1,1.13,1.13,0,0,1,.94-1.78,1.71,1.71,0,0,1,1.09.6c.29.28.57.57.85.86.68.72,1.29,1.48,2,2.14l-.1-.09.46.41a1.18,1.18,0,0,1,.37.62c.15.14.29.29.43.43,1.66,1.65,3.23,3.37,4.74,5.15a1.38,1.38,0,0,1,0,1.94,1.35,1.35,0,0,1-1,.38Z" transform="translate(-2030.9 -192.63)"/><path class="cls-4" d="M2441.42,6793.13a105.6,105.6,0,0,1-7.91-9.52c-.56-.77-1.08-1.57-1.58-2.37a30,30,0,0,1-1.59-2.68,28.63,28.63,0,0,1-1.16-2.75c-.25-.73-.52-1.45-.83-2.15-.22-.43-.45-.85-.7-1.27a2.83,2.83,0,0,1-.45-1.41,1.66,1.66,0,0,1,1.47-1.62,2.65,2.65,0,0,1,1.49.32,7.31,7.31,0,0,1,1.44.88,11.63,11.63,0,0,1,2.31,2.44c1.37,1.85,2.68,3.73,4.15,5.52,2.92,3.37,6.14,6.48,8.86,10a3.62,3.62,0,0,1-.43,4.73,3.58,3.58,0,0,1-2.48,1,3.49,3.49,0,0,1-2.59-1.1" transform="translate(-2030.9 -192.63)"/><path class="cls-5" d="M2413.19,7504.85a0,0,0,0,1,0,0l110.39-1113.31L2826.62,3334.8c11.89,9.35,24.57,19.17,37.71,29.18,43.24,33.18,89.61,68.36,139.11,101.72q17.79,12,35.48,24.08c31.07,21.18,63.19,43.07,95.76,63.39,24.74,15.44,49.47,30.89,74,46.23q11,6.78,21.88,13.63c19.83,12.39,40.34,25.21,60.95,37.18,14,8,28.47,15.64,42.49,23,9.88,5.19,20.09,10.55,30,16,7.45,4.14,14.85,8.47,22,12.67,10.28,6,20.9,12.24,31.61,17.86,6.07,3.23,12.33,6.19,18.38,9.06,8.78,4.16,17.87,8.46,26.6,13.68,15.14,8.82,31.62,16.35,47.56,23.64,9.28,4.25,18.88,8.63,28.12,13.24,65.89,33.07,134.85,62.1,201.54,90.16,29.22,12.31,59.44,25,89,37.92,11.59,5.09,23.83,9.2,35.67,13.16,6.29,2.12,12.79,4.3,19.13,6.61,6,2.19,11.94,4.92,17.7,7.56,11.72,5.4,23.85,11,37.08,12.21,2.5.13,5.38,1.62,8.15,3.06,1.25.64,2.53,1.31,3.73,1.83,28,12.19,56.47,20.7,85.58,29.06,9.88,2.88,19.76,6.58,29.31,10.17,8.31,3.12,16.91,6.34,25.46,9,32.69,10.64,65.3,20.68,96.94,29.84,19.9,5.89,40.14,11,59.71,16l10.9,2.77c56.39,14,117,28.8,177.84,42.54,40,9.07,80.7,16.56,120,23.79,23.16,4.27,47.11,8.67,70.67,13.36,24.57,4.86,49.51,8.05,73.63,11.15,11.46,1.47,23.32,3,35,4.66,32.23,4.6,66.05,8.7,100.52,12.2Q4067.59,5218.27,3299.39,6280L2413.21,7504.85h0" transform="translate(-2030.9 -192.63)"/><path class="cls-5" d="M2314.87,7415.93q-64.68-1832.62-129.35-3663.81L2144.84,2600c5,7.73,10.25,15.65,15.49,23.56,20.07,30.31,47,70.19,77.23,109.78,35.27,46.23,77.48,100.71,123.15,154.33,24.92,29.24,52.26,58.34,78.71,86.48,14.22,15.13,28.93,30.78,43.11,46.29,35.67,39.23,75.64,77.31,114.3,114.13l17.89,17.06c32.2,30.58,66.86,60.47,100.39,89.39l12.63,10.9-62.91,634.5L2314.91,7415.93a0,0,0,0,1,0,0l0,0" transform="translate(-2030.9 -192.63)"/><path class="cls-5" d="M2509.18,7554a0,0,0,0,1,0,0L4960.11,4166.48c16.59,1,33.66,2,52.21,2.92,46,2.36,94.2,4,143.2,5,21.67.49,39.28.73,55.4.73,17.6,0,33.51-.28,48.66-.85,34-1.32,68.25-3.53,101.42-5.66q17.64-1.16,35.32-2.24c44.45-2.61,88.38-7.64,130.86-12.52q14.91-1.71,29.83-3.38c37.7-4.17,78-10.23,123.3-18.52L2509.21,7554h0" transform="translate(-2030.9 -192.63)"/><path class="cls-5" d="M6151.78,3643.81s0,0,0,0h0l.13-1,.1-.83.4-3.11c1.22-9.57,2.49-19.47,3.5-29.22.64-6.06,1.12-12.24,1.59-18.21.22-2.78.44-5.55.68-8.32,1.36-16.15,2.77-33.47,3.81-50.6l.06-1c.84-13.45,1.71-27.35,1.72-41.05,0-10-.2-19.93-.47-30.86l-.08-3.26q-.16-6.75-.31-13.51l-.1-5.7c-.14-7.49-.28-15.23-.69-22.82-.88-15.58-3-30.86-5.2-46.43-2.62-18.21-5.82-37-9.49-55.91.27,1.13.51,2.27.75,3.41l-.91-4.42c.07.33.13.67.2,1-.67-3-1.32-6-2-9-.84-3.8-1.71-7.61-2.57-11.43-2.78-12.33-5.66-25.09-7.8-37.76-2.88-19.22-6.05-39.78-10.32-66.65-2.19-13.93-5-28.67-8.95-47.8-.89-4.31-1.79-8.56-2.7-12.81l1,4.7-.27-1.29-.37-1.81-.52-2.54q-.92-4.58-1.81-9.13c-2.35-12-4.78-24.33-7.77-36.4-2.59-10.41-5.56-21.41-9.09-33.62l.21.68-.31-1-1-3.36.32,1c-6.26-21-12.69-41.85-19.13-61.86l-.13-.35c-1.25-3.38-2.54-6.77-3.82-10.15q-1.26-3.29-2.5-6.59l-1.75-4.7c-1.61-4.33-3.22-8.67-4.9-13-.12-.32-.25-.64-.38-1-1.18-2.87-2.43-5.83-3.67-8.79-1.84-4.35-3.67-8.71-5.43-13.09-2.61-6.5-5.72-14.19-9.13-21.95q-2.1-4.76-4.15-9.52c-1.8-4.14-3.59-8.26-5.42-12.38-3.26-7.37-6.8-14.57-10.76-22.54l-3.32-6.6c-2.54-5.07-5.19-10.31-7.65-15.54-1.84-3.89-3.66-7.81-5.47-11.72q-2.39-5.17-4.81-10.34c-3.31-7-6.82-13.85-11.07-21.94-2.83-5.37-5.59-10.78-8.35-16.2l-2.83-5.53c-10.11-19.73-20.65-39.65-30.84-58.91q-7.31-13.82-14.58-27.63c-6.15-11.7-11.85-22.33-17.42-32.51-1.77-3.18-3.58-6.33-5.39-9.48-1.09-1.92-2.19-3.83-3.28-5.74-2.32-4.11-4.59-8.35-6.78-12.44l-2.43-4.53-.62-1.13-3.1-5.52c-1.23-2.18-2.46-4.37-3.67-6.57h0l-.12-.22v0l-.44-.79.46.75c-1.05-1.81-2.07-3.64-3.1-5.47-2.54-4.51-5.15-9.17-7.6-13.83l-1.34-2.53q-4.35-8.28-8.74-16.53l-.17-.31-1.06-1.94c-3.17-5.71-6.58-11.42-9.88-16.94l-2.26-3.8c-4.26-7.18-8.19-13.67-12-19.82-1.14-1.84-2.29-3.67-3.44-5.51-3.17-5.06-6.44-10.29-9.54-15.51q-2.34-3.91-4.63-7.85-3.63-6.16-7.29-12.3c-3.63-6-7.42-12.12-11.09-18l-.77-1.25-2.64-4.24c-3-4.91-6.09-9.81-9.2-14.68-1.5-2.36-3.05-4.71-4.58-7.06l-1.5-2.29c-1.82-2.76-3.52-5.65-5.15-8.45l-1.09-1.85c-3.87-6.55-8-13.13-12.63-20.1-2.85-4.31-5.87-8.93-8.71-13.58-.68-1.11-1.36-2.23-2-3.36-4.78-5.74-9.89-11.94-14.73-18.19q-4.17-5.38-8.37-10.74c-8.3-10.6-16.88-21.57-24.81-32.73-7-9.8-14.17-19.65-21.15-29.17l-6.91-9.45-2.36-3.24c-8.74-12-17.77-24.38-27.37-36-8-9.68-16.7-19.35-25.81-28.77-6.74-9.44-12.76-17.85-19-26.14q-6.37-8.49-12.83-16.9l-6.55-8.58-.58-.61c-2.54-2.69-5-5.54-7.34-8.3l-.82-1c-2.61-3-5.29-6-8-8.91-1.55-1.7-3.08-3.41-4.62-5.12-4.7-5.28-9.25-10.65-13.51-16-2.75-3.46-5.62-6.9-8.4-10.23l-3.92-4.71-3.43-4.19c-2.77-3.38-5.63-6.87-8.52-10.24-3.16-3.64-6.35-7.25-9.53-10.87l-4.41-5c-3-3.42-6.21-6.74-9.32-10-1.7-1.75-3.4-3.51-5.07-5.29l-.86-.92c-2-2.15-4.09-4.36-6.23-6.43-2.61-2.52-5.3-5-7.83-7.3-5.81-5.31-11.22-10.89-15.29-15.16-2.92-3.06-5.89-6.19-8.93-9.16-2.65-2.61-5.47-5.14-8.19-7.59l-.27-.24q-3.95-3.54-7.85-7.11c-2.89-2.63-5.79-5.27-8.71-7.87l-.16-.18v0l-.6-.52.29.2-.78-.64-.17-.15-3.28-2.88c-1.88-1.63-3.75-3.26-5.62-4.91-3.44-3-6.71-6.22-9.45-8.93-5.47-5.41-11.11-10.57-17.9-16.66l-.84-.76h0l-.25-.23,0,0-.42-.38,0,0-.47-.42-.25-.22.19.14c-8-7-15.14-13.21-21.74-18.85-1.5-1.3-3-2.58-4.54-3.86-2.48-2.11-5-4.22-7.42-6.36s-4.83-4.3-7.24-6.47l-3.74-3.38c-4.94-4.35-10.14-8.55-15.17-12.61l-2.19-1.76c-1.92-1.55-3.81-3.12-5.7-4.69-1.12-.93-2.23-1.85-3.35-2.76-1.44-1.19-2.9-2.35-4.35-3.52s-2.74-2.2-4.1-3.31c-5.64-4.61-11.06-9.69-16.31-14.6l-.67-.63c-2.57-2.4-5.1-4.86-7.63-7.3-2.76-2.69-5.63-5.46-8.5-8.12q-2.61-2.41-5.25-4.8l-.24-.22-.39-.35-.41-.36c-5.53-4.89-11.34-9.43-16.8-13.62l-6.31-4.86q-5.62-4.36-11.3-8.67c-6.72-5.07-12.79-9.63-18.92-14.09l-4.34-3.13c-4.43-3.2-9-6.51-13.45-9.86-2.16-1.63-4.28-3.32-6.39-5l-2.1-1.65-2.05-1.62c-2.31-1.82-4.63-3.64-6.91-5.5-3.44-2.8-6.87-5.71-10.19-8.53-2.61-2.21-5.21-4.42-7.84-6.59-5.19-4.29-10.92-8.87-18-14.4l-3.8-3c-5-3.89-10.13-7.91-15.34-11.67-10.87-7.85-21.74-15.36-33.8-23.65l-1.39-1-.64-.44-.15-.12v0l-1.42-.93-.76-.52c-5.58-3.78-12.17-8.21-18.88-12.43-3.19-2-6.37-4-9.55-6.08-3.49-2.23-7-4.47-10.49-6.67s-6.9-4.36-10.33-6.55c-3.15-2-6.29-4-9.44-6-2.53-1.59-5.08-3.15-7.62-4.72-3.91-2.38-7.95-4.86-11.84-7.4-10.36-6.75-20.94-13.53-31.18-20.09l-7.93-5.08c-12-7.68-24.5-15-36.59-22l-3.84-2.24c-3.65-2.13-7.28-4.3-10.9-6.48-3.8-1.67-7.88-3.41-12.49-5.32-2.89-1.52-5.77-3.07-8.62-4.68l-4-2.25c-3.71-2.1-7.42-4.19-11.15-6.24-4.27-2.31-8.68-4.55-13-6.7l-1.42-.72c-10.69-5.4-20.36-10.47-29.55-15.53-10.51-5.78-21.42-11.25-32-16.55l-4.6-2.32c-3.77-1.89-7.56-3.76-11.34-5.64l-6.74-3.33-5.37-2.69c-4.07-2-8.13-4.09-12.24-6.08-4.57-2.14-8.86-4-13.12-5.82l-5.47-2.26c-2.86-1.17-5.72-2.35-8.56-3.57l-2.92-1.24c-8.21-3.49-16.71-7.1-25-10.79l-7-3.08c-7.14-3.14-14.51-6.4-21.7-9.76l-8-3.72c-6.93-3.22-14.09-6.56-21.11-9.93l-2.45-1.17c-13.72-6.5-28-12.22-40.17-17-6.18-2.41-12.58-4.57-18.76-6.66l-.95-.33q-9.87-3.33-19.76-6.6l-3.23-1c-6.58-2.1-13.19-4.12-19.8-6.14-7.4-2.26-15.05-4.6-22.54-7-8.05-2.59-16.19-5.35-24.06-8-7-2.35-13.92-4.72-20.91-7-5.79-1.87-11.57-3.78-17.37-5.69l-10.16-3.34-.72-.23c-.6-.2-1.21-.39-1.81-.6l-1.31-.42c-3-1-6-1.92-9-2.9-10.88-3.5-21.56-6.71-31.76-9.55-10.8-3-22-5.6-31.55-7.8-15.31-3.49-30.58-8.17-45.34-12.69-6.85-2.1-13.91-4.27-20.91-6.3-10.82-3.13-21.88-6.07-32.59-8.91l-.56-.15-6.79-1.79q-4.31-1.11-8.6-2.27c-3.77-1-7.55-2.17-11.21-3.28l-4.24-1.27q-7.47-2.24-14.92-4.58c-4.4-1.38-8.92-2.66-13.27-3.9l-1.67-.48c-4.75-1.34-9.54-2.83-14.18-4.27l-1.62-.5c-3.2-1-6.59-2-11-3.19-8.8-1.75-16.14-3.08-23.07-4.17-5.61-.88-11.24-1.68-16.85-2.49s-11.52-1.64-17.26-2.54c-7.65-1.22-15.41-2.56-22.9-3.85-11.83-2-24.07-4.15-36.17-5.81-4.93-.69-9.88-1.28-14.82-1.88-6.61-.8-13.45-1.62-20.15-2.64-12.55-1.92-23-3.7-32.79-5.58l-.61-.13-.51-.1-6-1.16c-10.17-2-20.69-4-31.07-5.76-9.13-1.53-19-3-30.23-4.35-5.5-.44-11-.93-16.47-1.42-4.26-.38-8.51-.76-12.77-1.11-9.64-.8-19.91-1.83-33.29-3.33-5.89-.67-11.68-1.21-17-1.7-8-.45-16-.79-22.75-1.07-7.62-.33-15.36-.85-22.84-1.36l-.88,0c-7-.41-14.14-.58-21-.73-4.73-.11-9.45-.21-14.18-.4l-6.87-.29c-3.58-.15-7.16-.3-10.75-.41-4.33-.16-8.74-.17-13-.19h-4q-14.3-.12-28.58-.11c-13.61,0-27.29.07-40.63.22-3.53,0-7,0-10.57.06-4.22,0-8.44,0-12.66.1-8,.12-16.18.41-23.19.69q-9,.33-18.07.59l-4.89.15c-6.7.21-13.85.58-23.17,1.19l-1.81.12-2.11.14.94-.1c-10.75.75-21.67,1.33-32.23,1.9-9.71.52-19.75,1.06-29.62,1.7-15.09,1.06-31.16,2.17-47.07,2.91l-10.47.48c-10.68.49-21.72,1-32.57,1.67-8.26.62-16.64,1.51-24.74,2.36l-9.45,1c-3.58.35-7.17.68-10.75,1-7.68.71-15.62,1.45-23.41,2.44s-15.9,2.43-23.62,3.81c-3.54.63-7.06,1.25-10.61,1.85-10.64,1.78-22.16,3.53-35.25,5.35-12.27,1.7-24.3,3.37-36.31,5.16l-4.56.66-.72.13c-9.16,1.67-18.72,3.33-28.43,4.94-8.69,1.44-18.79,3.14-28.79,5.11-12.38,2.56-24.69,5.29-36.6,8.13-8.59,2-17.3,4.21-25.72,6.31l-3.61.9-4.8,1.52c-2.58.81-5.15,1.63-7.74,2.43-16.76,5.22-34.42,11.27-54,18.5-8.92,3.3-18.45,6.64-30.89,10.84l-6.48,2.16c-7.79,2.59-15.84,5.27-23.61,8.32-6.53,2.73-13.12,5.62-19.49,8.41l-7,3q-6.29,2.73-12.58,5.43c-5.18,2.24-10.36,4.46-15.52,6.71-15.93,7-33.16,14.57-54.24,24l-1.57.71c-7.16,3.2-14.56,6.5-21.76,9.94-6.52,3.12-13.59,6.66-22.25,11.13-5.19,2.69-10.42,5.54-15.48,8.27-2.12,1.16-4.23,2.3-6.36,3.44-2.46,1.33-4.92,2.63-7.38,4-6,3.18-12.16,6.47-18.17,9.86l.72-.44c-6.28,3.61-12.66,7.15-19.05,10.69l-9.62,5.34-.37.25-.36.24c-4,2.66-7.93,5.37-11.88,8.08-3.34,2.31-6.68,4.61-10.06,6.87-14.71,9.89-29.81,19.39-42.65,27.38-5.92,3.69-10.77,7-15.24,10.27-3.42,2.63-6.85,5.38-10.17,8q-3.73,3-7.5,6c-8,6.27-14.63,11.32-20.8,15.9-5.43,4-11.09,7.87-16.57,11.59l-2.91,2c-6.71,4.59-13.21,9.41-19.28,14-7.67,5.81-15.33,11.9-22.74,17.78-8.1,6.44-16.47,13.09-24.88,19.41-4.25,3.25-7.76,6-11,8.76-3.85,3.19-7.56,6.68-11.14,10-6.35,6-13.82,13.07-21.14,20.24l.42-.47-1.87,1.91c-2.34,2.35-4.77,4.78-7.21,7.09-2.06,2-4.15,3.84-6.26,5.72l-2.85,2.57c-4,3.66-8.08,7.46-12,11.14l-7,6.52-4.9,4.53-4.89,4.54c-1.33,1.3-2.68,2.58-4,3.87s-2.55,2.43-3.81,3.66q-5.77,5.71-11.5,11.49c-4.69,4.69-9.37,9.39-14.09,14l.13-.19c-2,2-4,4.06-6,6.08-1.74,1.77-3.48,3.54-5.23,5.29-4,4-8,8.14-11.8,12.13-8.43,8.79-15.41,16.15-22.24,24.22-1.93,2.26-3.81,4.56-5.69,6.87-1.44,1.75-2.88,3.51-4.33,5.25q-5.41,6.49-10.78,13-3,3.69-6.11,7.36c-1.55,1.85-3.1,3.69-4.63,5.55-3.12,3.77-6.18,7.68-9.14,11.46l-1,1.28-1,1.29-.49.64c-1.62,2.14-3.19,4.36-4.69,6.52-1.16,1.66-2.33,3.32-3.53,5-3.27,4.45-6.78,8.79-10.4,13.22-3.26,4-6.63,8-9.89,11.81-3.5,4.13-7.11,8.39-10.59,12.67-2.09,2.56-4.17,5.12-6.19,7.72s-4.07,5.53-6,8.25c-1,1.34-1.9,2.68-2.86,4-3.13,4.33-6.42,8.68-10.08,13.31-3.27,4.14-6.66,8.43-10.12,12.59-2.66,3.2-5.44,6.38-8.13,9.47l-2.16,2.48c-3,3.44-6.1,7.2-9.18,11.17l-.21.22,0,0-.33.44-.28.37-.27.35c-3.07,4-6.24,8-9.42,12q-4.08,5.17-8.14,10.38l-.15.21-.35.46.1-.2c-3.73,4.94-6.74,8.67-9.65,12.06-3.74,4.35-7,8.3-9.89,12.07-4.14,5.41-8.13,11.09-12,16.58-2,2.83-4,5.67-6,8.48-3,4.18-6.06,8.31-9.12,12.45l-.49.66c-2.85,3.85-5.91,7.67-8.86,11.35l-1.43,1.78c-.72.91-1.45,1.82-2.17,2.75-1.6,2.09-3.16,4.29-4.67,6.41-.83,1.19-1.67,2.36-2.52,3.53l-3.46,4.78q-2.08,2.9-4.18,5.78l-1.69,2.31q-2.79,3.78-5.52,7.58l-.9,1.27c-.82,1.16-1.63,2.33-2.5,3.46-.71.94-1.44,1.86-2.17,2.78l-1.64,2.08.11-.21-1.74,2.33c-1.81,2.36-3.7,4.81-5.45,7.27-.51.88-1,1.75-1.55,2.62-1.15,1.87-2.35,3.71-3.56,5.55l-1.64,2.53-.32.54-.34.59c-.66,1.11-1.3,2.21-1.94,3.32l-.43.74-.36.63a14.94,14.94,0,0,1-1.58,2.41c-.62,1.11-1.21,2.25-1.76,3.39-1.75,3.65-3.48,7.3-5.22,10.95-3.33,7-6.76,14.22-10.24,21.3-1.2,2.45-2.59,5.29-3.83,8.18.1-4.37.25-8.74.35-13.1.16-6.58.23-13.63.23-22.85q0-4.62,0-9.23v-3.34c0-1.13,0-2.25,0-3.37q0-3.83,0-7.64v-.25c0-.51,0-1,0-1.5,0-1.17,0-2.33.06-3.5.07-4.82.18-9.48.3-14.15l.18-6.52.19-7c.42-16,.79-33,.1-49.81l.21-.34c5-8.3,10.11-16.88,15.55-25.32,2.69-4.18,5.52-8.36,8.27-12.41,2.49-3.67,5.06-7.46,7.52-11.24,3.64-5.6,7.2-11.39,10.64-17,1.74-2.82,3.47-5.64,5.22-8.45,2.73-4.37,5.39-8.89,8-13.26,2.4-4.07,4.88-8.28,7.41-12.36,5.33-8.65,11.19-17.36,17.88-26.66,4.65-6.44,9.74-12.72,14.65-18.78,1.53-1.89,3.06-3.77,4.58-5.67,5.36-6.71,10.9-14,18-23.61l.29-.39c7.1-9.72,14.45-19.76,22.33-29.16,5.42-6.46,11.38-12.65,17.14-18.64,1.88-2,3.76-3.91,5.62-5.87,2.29-2.44,4.56-4.88,6.84-7.33,6.46-6.93,13.14-14.1,19.86-21,3.83-4,7.82-7.88,11.68-11.69,4.6-4.54,9.36-9.24,13.9-14,3.27-3.57,6.5-7.28,9.62-10.87s6.37-7.32,9.64-10.9l6.27-6.8c5.21-5.65,10.6-11.49,15.74-17.38,15.73-18.07,30.44-34.13,45-49.11,15.27-15.75,32.16-30.46,48.14-44.19,7.58-6.5,15.42-13.33,23.31-20.28,2.85-2.52,5.68-5.06,8.5-7.59,4.1-3.67,8.33-7.47,12.55-11.13,10-8.63,17.79-15.1,25.35-21,6.81-5.28,13.94-10.34,20.83-15.24l4.28-3.06c5.13-3.66,10.18-7.6,15.08-11.4,3.23-2.52,6.45-5,9.72-7.49,6.1-4.58,12.42-9.08,18.54-13.42l7.84-5.6c9.34-6.71,17.72-12.53,25.61-17.78,3.07-2,6.16-4.08,9.25-6.12,6-3.93,12.13-8,18.14-12.1,2.06-1.39,4.1-2.8,6.15-4.2,5.79-4,11.77-8.07,17.77-12,8.63-5.61,17.65-11.28,27.61-17.33,8.44-5.13,17.25-10,25.75-14.72l.85-.47c10.69-5.93,19.68-10.89,28.77-15.82l3.92-2.13c7.76-4.21,15.52-8.42,23.31-12.56s16.66-8.54,27.5-13.67l1-.48,1-.44c5.17-2.6,10.5-5.22,15.84-7.78,11.91-5.74,21.16-10.08,30-14.08,6.12-3.07,12.92-6.32,21.37-10.23q3-1.36,5.94-2.69a4.65,4.65,0,0,1,.08-.61c2.52-15.32,9.75-29.29,16.74-42.79l1.74-3.36c6.34-12.33,13.29-25,21.25-38.66,6.91-11.9,14.54-23.3,21.1-32.89q7.92-11.58,15.74-23.22l8.57-12.69,9.73-14.34q7.38-10.86,14.75-21.74c3.69-5.46,7.41-10.88,11.15-16.32,4.4-6.42,8.81-12.83,13.16-19.29,8.37-12.45,16.57-25,24.52-37q6.2-9.45,12.46-18.84,6-9,12-18.12c3.05-4.65,6.07-9.32,9.1-14,5.11-7.92,10.41-16.12,15.8-24.06,9.44-13.94,19.1-27.31,28.69-39.74,8.92-11.56,18.15-23.05,27.44-34.17,8.29-9.91,17-19.73,25.45-29.22l2.43-2.73c11.89-13.36,24.64-26.8,37.9-40q2.8-3.35,5.66-6.67c1.06-1.25,2.13-2.5,3.19-3.76q4.32-5.1,8.74-10.11l2.74-3.13c2.33-2.67,4.65-5.34,7-8s4.76-5.21,7.15-7.81l1.44-1.55c1.06-1.14,2.12-2.28,3.13-3.45s2.2-2.37,3.31-3.5c.56-.58,1.13-1.15,1.68-1.73l4.33-4.55,2.9-3c2.38-2.48,4.79-4.91,7.21-7.35l3.2-3.22c6.58-6.66,13.2-13.17,21.11-20.88,5-5.76,9.14-10.44,13-14.75,9-10.09,19.3-21.54,29.93-32.36,10.45-10.63,21-20.78,31.35-30.18,10.89-9.88,22.33-20,35-30.88l1.82-1.8c6.34-6.35,12.94-12.65,19.31-18.74,3.21-3.08,6.44-6,8.91-8.24l5.09-4.59,1.11-1c1.41-1.25,2.88-2.55,4.22-3.93a3.11,3.11,0,0,1,2.72-1.77,2.74,2.74,0,0,1,1.15.25,2.68,2.68,0,0,1,.77.5c10.36-9.05,21.09-18.2,32.74-28l1.64-1.74,3.37-3.6c8.11-8.59,15.48-15.94,22.52-22.43,8.27-7.64,17.08-14.66,26.12-21.79,6.19-4.87,12.55-9.74,18.7-14.45,9.2-7,18.71-14.34,27.86-21.77.54-.46,1.09-.91,1.63-1.35l1.93-1.63.81-.66,3.95-3.35.31-.26c3.42-2.88,7.07-6,10.76-8.93,6.24-5,12.77-9.85,18.52-14.11l.2-.15c11.56-8.55,23.53-17.4,35.48-25.83,2.81-2,5.64-3.93,8.48-5.86,6.23-4.8,12.62-9.59,18-13.66,13.06-9.8,24.69-18.15,35.55-25.51s22.5-14.94,35.25-22.92c6.14-3.86,12.48-7.63,18.62-11.27l1-.6c5.5-3.7,10.47-7,15.2-10,13.94-9,26.47-17.09,38.3-24.81,12.43-8.11,26.51-17.3,40.66-25.57,8.85-5.16,17.92-10.33,26.68-15.32l2.08-1.18c10.55-7.23,21.83-14.91,33.38-22.32q7.22-4.62,14.47-9.19l.79-.49,1.19-.75-.26.17q10.11-6.54,20.29-13l-.21.15c1.12-.73,2.25-1.44,3.39-2.16,12-7.59,25-15.48,41-24.85,9.13-5.36,18.61-10.49,27.77-15.45,4.32-2.35,8.64-4.69,12.94-7.06,10.42-5.74,20.84-11.9,30.92-17.85l8.88-5.24q3.32-1.95,6.66-3.85h.74c6.06.26,12.14.41,17.37.52,7.8.18,15.72.24,23.39.3h1.47c.91,0,1.65,0,2.39,0l2.14,0,2,0h1c11.34.12,22.55.33,33.35.63,7.49.23,15,.5,22.44.8l1.28.09q8.86.6,17.7,1.27c-7.8,4.49-15.9,8.7-23.73,12.77q-6.29,3.26-12.54,6.57c-4.63,2.47-9.21,5-13.8,7.56l-5.36,3c-4.27,2.36-8.59,4.65-12.9,6.93l-6.08,3.23c-11.12,5.92-22.87,12.75-37,21.5-10.83,6.7-23.11,14.29-35.54,21-2.06,1.13-4.14,2.24-6.2,3.35-3.73,2-7.58,4.05-11.31,6.17-6.29,3.59-12.78,7.46-19.29,11.5-4.35,2.7-8.73,5.39-13.1,8.08q-10.18,6.27-20.31,12.59l1-.65-1.43.95-.49.32-.26.16-.77.48c-10.61,6.86-21.34,13.91-31.72,20.73-13.57,8.91-27.61,18.13-41.53,27-13.22,8.45-26.52,16.5-39.53,24q-12.43,7.14-24.84,14.35l-12.39,7.17-7.44,4.29c-9.2,5.28-18.7,10.74-27.82,16.49l-.32.21-.33.21q-9,5.76-18.06,11.48l-2.43,1.54c-2.68,1.76-5.5,3.61-8.52,5.64-7.65,5.82-15.27,11.71-22.88,17.6l-13.94,10.76c-9,6.94-18.14,14.1-26.94,21q-5.17,4.08-10.35,8.14c-11.56,9.06-24,18.49-39.33,29.67l-4.22,3.09c-4.17,3.94-8.56,8.16-13,12.56-12,11.73-22.76,22.35-32.89,32.46l-.38.39c-9.45,9.42-19.22,19.17-29.1,28.49-10.29,9.71-21.37,18.86-32.1,27.71l-3.52,2.91-1.92,1.59-2.89,2.39.89-.78-5.14,4.32.89-.79c-10.19,8.53-20.49,17.21-30.46,25.62q-13.5,11.37-27,22.7c-11.52,9.6-22.25,18.42-32.8,26.93q-5.21,4.21-10.45,8.4c-6.49,5.21-13.21,10.6-19.74,16l-1.13.94-1.13.94c-16.13,13.59-31.7,28.31-46.76,42.54l-6.1,5.77c-8.89,8.39-17.57,16.63-26,25.15-8.84,9-17.49,18.07-24.77,25.79l-1.3,1.4-1.29,1.4c-16.25,17.6-32.16,36.05-47.55,53.89l-11.57,13.39c-8.43,9.74-18.45,21.27-28.85,32.95-9.22,10.35-16.68,19-23.49,27.16q-6.57,8.65-13.24,17.26c-4.3,5.58-8.61,11.16-12.87,16.77q-6.06,8-12,16c-4.89,6.54-9.95,13.3-15,19.9-4.5,6.59-9.19,13.58-14.74,22-4.67,7.09-9.32,14.35-13.83,21.38-3.59,5.62-7.19,11.24-10.83,16.81-6.93,10.66-14.42,22.47-23.56,37.17-3.6,5.8-7.35,11.65-11,17.3-4,6.29-8.21,12.81-12.2,19.27q-3.75,6.09-7.47,12.16c-5.36,8.72-10.89,17.74-16.45,26.53-3.87,6.14-7.89,12.33-11.78,18.31-3.74,5.76-7.62,11.72-11.35,17.62l-6.33,10.06q-8.46,13.42-17,26.81c-3.49,5.45-7.32,11.21-12.06,18.13,1.66-.48,3.35-.92,5-1.37l1-.25,1-.26q6.09-2.27,12.18-4.6c11.18-4.28,21.09-8,30.29-11.25,10.23-3.66,20.38-6.75,29-9.28,21.11-6.23,41.78-11.9,61.43-16.86,22.74-5.73,43-10.38,62.07-14.21,8.72-1.77,17.55-3.68,26.1-5.55l6.38-1.38c9.74-2.11,20.09-4.06,30.74-5.79,6.93-1.12,14-2.12,20.85-3.08l8.5-1.21,8.56-1.25c7.14-1.06,14.52-2.14,21.8-3.07,12.28-1.55,23.06-2.65,33-3.36,3.34-.24,6.68-.46,10-.68,7.65-.52,15.55-1,23.32-1.71q6.6-.54,13.21-1.12c6.37-.55,12.74-1.1,19.11-1.61,4.15-.33,8.31-.63,12.47-.94,6-.45,12.12-.91,18.18-1.42,7.43-.62,15-1.4,22.28-2.15l9.32-1c2.58-.26,5.16-.48,7.75-.71l4.43-.53c2.73-.33,5.45-.67,8.19-1,19.77-2.35,39.94-3.86,59.45-5.32q6.45-.48,12.9-1c3.22-.24,6.44-.5,9.65-.76,9.39-.74,19.09-1.52,28.65-2,11.56-.61,25.21-1.36,38.7-2.3,11.71-.81,24.32-1.62,37.14-2.12,8.76-.32,18.36-.48,29.35-.48,3.27,0,6.56,0,9.83,0,6.83,0,13.77.35,20.48.65,5,.22,10.16.46,15.24.57,7.18.17,14.36.27,21.55.36,5.5.07,11,.13,16.5.23,11.68.23,23.52.9,35,1.54,12.37.68,24.67,1.71,36.58,3l14,1.56q11.25,1.25,22.5,2.53c8.5,1,17.13,2.12,25.47,3.21,3.81.49,7.61,1,11.42,1.47,26.25,3.35,52.74,7.1,75.18,10.32l7.84,1.14c20.12,2.88,40.92,5.86,61.28,9.42,14.21,2.48,28.56,5.55,42.42,8.53,9.53,2,19.36,4.15,29.08,6,11.15,2.19,22.89,4.36,34.88,6.47,9.63,1.71,19.46,3.23,29,4.72l7.18,1.11c6.36,1,12.71,2.06,19.06,3.12,5,.84,10.05,1.68,15.07,2.48l5.62.89c4.14.66,8.28,1.3,12.42,2,5.16.87,10.31,1.81,15.46,2.76l3.1.56c12.19,2.25,24.42,4.77,36.38,7.51,14.24,3.28,27,6.28,38.95,9.17,10.24,2.46,21.19,5.39,33.47,9,4.41-8.21,9.17-16.43,13.77-24.38l1.59-2.77,4.91-8.48c4.85-10.89,10.16-21.82,14.85-31.48q2.65-5.49,5.3-11c3.31-6.89,6.74-14,10.22-21l.57-1.16,2-3.88.57-1.15,1.09-2.19.12-.23,0-.08-.06.14.38-.76.16-.32.52-1,.86-1.71q5.18-10.41,10.4-20.8l1.47-2.93-.28.6.87-1.79.64-1.26c13.13-26.26,23.51-46.32,33.66-65.07q2.58-4.75,5.18-9.5c2.21-4.73,4.28-9,6.32-13.16q3.93-8,7.84-15.91c8.09-16.44,16.46-33.43,25.1-50,4.91-9.39,10.05-18.85,15-28q5.78-10.62,11.47-21.26,2.78-5.35,5.51-10.72c2.64-5.16,5.28-10.31,8-15.44l-.21.49c5.54-10.71,11.29-21.5,16.85-32q6.3-11.8,12.53-23.62l1.83-3.53,1.33-2.56,1.2-2.3.77-1.48,1.8-3.46c4.29-8.29,8.49-16.53,12.7-24.76,6.62-13,13.46-26.41,20.42-39.5q4.65-8.78,9.38-17.49c2.51-4.65,5-9.31,7.52-14q4.58-8.58,9.13-17.19,4.11-7.75,8.24-15.51,4.41-8.26,8.88-16.49c4-7.44,8.2-15.14,12.2-22.76q3.24-6.28,6.41-12.59c2.89-5.7,5.87-11.6,8.9-17.34l-.17.41,2.72-5.29,1-1.92-.1.19c4.82-9.21,10-18.42,15-27.32l1.95-3.46c4.69-8.36,9.31-17,13.78-25.26l3-5.53c8.59-16,20-37,32.11-57.89l.13-.44c.15-.55.29-1.09.44-1.63a76.19,76.19,0,0,1,3.1-9.07c.48-1.21.95-2.42,1.41-3.64.93-2.43,1.9-5,3-7.38,3-6.82,5.66-13,8.65-19.14.91-1.89,1.83-3.77,2.73-5.66,2.18-4.53,4.43-9.22,6.76-13.76,1.15-2.25,2.28-4.5,3.42-6.75s2.29-4.5,3.44-6.74l1.51-3,1.52-3c.21-.4.4-.81.6-1.21.37-.76.73-1.52,1.16-2.22l.1-.19.11-.17h0c2.56-5,5.1-9.77,7.65-14.61l5.19-9.87,0,.1.05-.1c1.53-3,3.15-6,4.72-8.92q1.19-2.17,2.37-4.38t2.29-4.37c1.64-3.14,3.35-6.38,5.12-9.5,3.08-5.88,6.32-11.83,9.46-17.59l3.71-6.83c1.89-3.6,3.83-7.13,5.77-10.65q1.57-2.85,3.13-5.71,3.59-6.6,7.2-13.18l2.87-5.22c1.87-3.42,3.75-6.84,5.61-10.26s3.83-7.06,5.76-10.59c.41-.76.81-1.52,1.21-2.28.8-1.52,1.61-3,2.47-4.51,1.75-3.41,3.57-6.8,5.38-10.19q1.38-2.61,2.78-5.22l2.65,1,2.58,1,.43.16.45.18,4.27,1.62,4.28,1.62,10,3.8.37.14.38.15,5.08,1.91,6,2.3.43.16,9.85,3.73,8.32,3.14.23.09.22.09,2.18.82,2.12.8-.7,1.45q-3.36,6.62-6.7,13.24c-6.93,13.85-13.3,28.25-19.46,42.17-3.23,7.29-6.57,14.83-9.95,22.2q-4.27,9.35-8.59,18.68c-7.26,15.75-14.77,32-21.89,48.18-4.58,10.4-9.06,21.05-13.4,31.34-4.64,11-9.45,22.46-14.4,33.59q-6.45,14.55-13,29c-5.52,12.18-11.21,24.76-16.67,37.22-8.57,19.59-19.62,40.18-34.77,64.78l-2.34,3.81q-10.07,16.37-20.2,32.69-1,2.19-1.93,4.38c-11.16,25.45-21,46-30.87,64.69-3.64,6.86-7.41,13.79-11.07,20.48-4.43,8.14-9,16.54-13.38,24.89-5.58,10.77-11.09,21.81-16.42,32.48-4.77,9.55-9.71,19.42-14.68,29.08l-9.44,18.33q-11.85,23-23.67,46c-6.15,12-11.19,22.11-15.85,31.74-5.28,10.93-10.18,22-14.75,32.48q-4.38,10-8.73,20.12c-6.23,14.4-12.66,29.29-19.31,43.78-6,13.15-12.64,26.28-19,39l-2.2,4.37c-1.76,3.48-3.51,7-5.26,10.47-5.14,10.29-10.47,20.92-15.88,31.29l-.2.38-.19.37-.31.59-.3.59.1-.21-2,3.83-2,3.87c-4.62,9-9.43,18.84-15.12,30.87l-1.24,2.63c-4.58,9.68-9.31,19.67-14.37,29.34-5.36,10.24-11.18,20.53-16.34,29.61-2.46,4.34-4.88,8.71-7.31,13.07-2.94,5.29-5.88,10.58-8.89,15.84-7.89,13.78-16.33,27-22.79,37l22.21,7.08c21.3,6.78,42.22,14.08,67.06,23,14.84,5.3,29.78,11.1,44.22,16.71q10,3.9,20.06,7.75c12,4.59,22.72,8.85,32.72,13s20.38,8.64,34.12,14.72c10.36,4.58,21.11,9.1,32,13.45,6.18,2.47,12.51,4.85,18.63,7.15,4.67,1.76,9.34,3.52,14,5.33,9.08,3.54,18.09,7.63,26.8,11.59l5,2.27c4.44,2,9.48,4.28,14.39,6.63,4.11,2,8.25,4.06,12.25,6.1l3.86,2c9.4,4.75,20.45,10.41,31.17,16.37,4.62,2.56,10,5.56,15.12,8.67,3.52,2.11,7,4.26,10.52,6.4l4.35,2.68c10.46,6.4,19.05,11.39,27,15.69l8,4.28c7.43,4,15.11,8.1,22.59,12.27,10.1,5.63,19.37,11.87,30.43,19.43,8.1,5.54,14.31,9.86,20.15,14,14.8,8.58,29.39,17.34,40.44,24l1.29.81,1.16.7c8.87,5.37,18.14,10.38,27.11,15.24,7.82,4.24,15.93,8.62,23.72,13.23,5.33,3.13,11,6.67,17.37,10.83,7.47,4.84,15,10,22.34,15q7.44,5.1,14.9,10.14c13.11,8.78,25.63,17.74,37.23,26.62,3.68,2,8.53,4.6,13.37,7.35,9.05,5.13,17.61,11,27.08,17.47l6.8,4.68c7.15,4.91,14.54,10,21.74,15.07,9,6.37,17.62,13,25.6,19.82,5.69,4.83,11.36,9.87,16.85,14.75l7.41,6.56c8.23,7.26,16.94,14.13,25.12,20.47q10.66,8.25,21.28,16.55l4.59,3.58,7.4,5.72,3.73,2.88,1.52,1.17c3.44,2.65,7,5.39,10.33,8.29,13,11.29,25.25,23.18,35.55,33.33,1.94,1.67,3.86,3.35,5.76,5.06l3.1,2.78c3.18,2.85,6.49,5.8,9.63,8.81,1.72,1.66,3.43,3.34,5.14,5,2.4,2.35,4.79,4.7,7.23,7,2.2,2.07,4.35,4.2,6.5,6.34l1.09,1.1c1.61,1.63,3.27,3.31,5,4.86,2.08,1.85,4.2,3.67,6.31,5.48,2.43,2.1,4.87,4.19,7.26,6.35,4,3.65,8,7.36,12,11.06l1.66,1.55c5.22,4.82,10.41,9.84,15.43,14.7,3.51,3.38,7,6.77,10.57,10.13,2.24,2.13,4.52,4.21,6.79,6.3,2.07,1.91,4.15,3.82,6.2,5.75,5.13,4.85,9.31,9,13.16,12.93a289.68,289.68,0,0,1,20.15,23.05c3,2.73,6.21,5.78,9.83,9.32,4.26,4.17,9.24,9.11,13.91,14.27,3.7,4.09,7,8.24,10.94,13.24,3.9,3.77,7.65,7.66,11.12,11.56,1.27,1.42,2.5,2.86,3.72,4.3l2,2.38c.94,1.1,1.91,2.18,2.86,3.26s1.68,1.88,2.5,2.83c1.73,2,3.43,4,5.14,6,3.26,3.86,6.62,7.85,10.16,11.57,4,4.15,8.15,8.44,12.05,12.84,2,2.28,4.06,4.76,6.42,7.81,1.65,1.76,3.29,3.54,4.93,5.31,2.53,2.73,5.05,5.46,7.61,8.16l.45.48c4.31,4.55,8.76,9.27,13,14,5.08,5.66,9.19,10.44,12.95,15.09,1.84,2.28,3.65,4.6,5.45,6.93,2.1,2.69,4.27,5.48,6.48,8.16,1.69,2.05,3.4,4.07,5.13,6.1,2.47,2.91,5,5.92,7.45,9,1.77,2.23,3.52,4.46,5.28,6.69,2.18,2.77,4.36,5.54,6.56,8.28,3.46,4.34,6.9,8.81,10.23,13.13,4.14,5.38,8.42,10.95,12.79,16.29,3.31,4,6.56,8.16,9.81,12.26l2.23,2.81.57.73c3.12,3.93,6.34,8,9.42,12,.32-1.69.67-3.39,1-5.1,2.22-11.77,4.47-23.93,6.88-37.19,0,.38-.11.75-.17,1.13,3-17.29,5.6-32,8-46.74,2.5-15.35,4.63-31,6.7-46.14l.21-1.57c2.38-17.49,5.33-35.31,7.91-50.64,1.12-6.68,2.19-13.38,3.25-20.07,1.52-9.54,3.08-19.4,4.81-29.07l0,.25c.2-1.29.42-2.56.67-3.85l.06-.38c.1-.58.21-1.17.32-1.75.05-.28.1-.53.15-.77a2.58,2.58,0,0,1,0,.29l2.32-12.88,1-5.61c2.11-11.78,4.17-23.79,6.16-35.4q1.23-7.21,2.47-14.41c1.33-7.75,2.7-15.49,4.06-23.23q2.5-14.11,4.93-28.23c3-17.66,5.26-34,6.87-50,1.69-16.66,2.77-33.63,3.82-50l.17-2.66c.63-10,1.48-20.21,2.28-30.05q.52-6.31,1-12.64c1.05-13.24,1.67-26.72,2.28-39.77v.56l.07-2.18.18-3.7,0,.15s0-.11,0-.15a20.94,20.94,0,0,1-2.74-12.37l.08-1.14.07-1.14c.37-10.11.23-20.4.08-30.34l0-2c-.1-7.22-.3-14.41-.46-19.87-.13-4-.4-8-.66-12l-.27-4.21c-1.07-11.7-2.06-22.23-3.37-32.76-1.64-13.09-3.22-25.9-4.53-38.8-2.28-22.41-4-46.17-5.12-72.66-.46-10.2-1-19.15-1.56-27.35-.39-4.23-.82-8.47-1.24-12.7-.58-5.78-1.16-11.55-1.67-17.34-.15-1.66-.29-3.33-.43-5-.85-9.34-2.07-21.67-4-34.14-1.78-11.54-3.89-23-6.07-34.71l-.74-4c-1.87-10-3.79-20.29-5.48-30.46-2.06-12.35-3.75-24.67-5.15-35.09-2.49-18.75-4.65-37.86-6.74-56.33q-.88-7.92-1.79-15.85l-.71-6.15c-2.32-20.39-4.72-41.48-8.48-62-3.38-18.38-7.38-38.2-12.59-62.37q-.87-3.93-1.71-7.88l-.42-1.93c-.53-2.42-1.07-4.89-1.59-7.36-1.95-8.91-3.79-18-5.58-26.79q-1.33-6.59-2.68-13.17l-4.23-20.44-4.23-20.44.06.25-.07-.32-.48-2.21.13.54c-.29-1.27-.57-2.55-.83-3.83-5.18-23.59-10.76-46.61-16.58-68.43-1-3.71-2-7.44-3-11.15-2.05-7.78-4.11-15.54-6.23-23.3-1.46-5.32-3-10.62-4.51-15.93-1.79-6.24-3.65-12.7-5.36-19.09-4-15-7.48-30.46-10.81-45.39-1.81-8.15-3.69-16.58-5.64-24.84,15.09,13.42,30.3,26.79,45,39.73l8.67,7.63L5802,824.74l1.07.93,1.24,1.09,2.37,2.08,1.52,1.32.35.32,2.15,1.88,4.65,4.06,1.68,1.46,1.68,1.47c8.39,7.33,15.33,13.35,21.87,18.92q1.62,7.63,3.12,15.29c1,5.17,2.08,10.33,3.14,15.5,2.3,11.19,4.68,22.76,6.54,34.24,1,6.15,1.78,12.45,2.54,18.54.29,2.37.59,4.75.9,7.12,1.1,8.56,2.37,17,3.68,25.71,3,20,5.23,36.29,7,51.45,1.43,12.1,2.89,23.34,4.46,34.36l.16.8.16.75c.16.76.31,1.51.46,2.26l.18.85c0,.18.07.36.1.54l0,.2,0,.2.06.29.23,1.18.22,1-.1-.32c4.1,19.24,8.46,38.75,12.68,57.63q2.78,12.4,5.53,24.81,1.62,7.32,3.26,14.62,2.81,12.6,5.58,25.23c2,9.21,3.86,18.62,5.65,27.71q1.19,6,2.39,12l.4,2,.43,2.1c1.86,9.05,3.91,18.22,5.89,27.08,1.79,7.94,3.63,16.16,5.32,24.26,2.22,10.64,4.07,20.42,5.66,29.91,1.67,9.89,3.13,20,4.35,28.55,2.77,19.61,4.84,37.29,6.31,54q.91,10.57,1.79,21.17c.9,10.74,1.83,21.86,2.84,32.79,1.61,17.71,2.81,32.41,3.76,46.25l.14,2.11-.07-.81q.34,4.54.64,9.1l.27,4c2,29.87,4.47,69.31,5.44,109.61.48,20.21.61,40.35.68,55.64v4.11c.08,17.12.15,34.8-.43,52.21-.37,10.93-.86,19.86-1.53,28.1-.78,9.7-1.88,19.53-2.92,28.76q-1.8,15.7-3.71,31.41-1.34,11.06-2.63,22.11c-1.26,10.65-2.84,21.44-4.37,31.87-1,6.89-2.06,14-3,21-.86,6.46-1.65,13-2.4,19.4-.33,2.85-.68,5.71-1,8.56-1.08,8.87-2.36,17.88-3.59,26.58l-.15,1.07c-2.59,18.24-5,34.67-7.93,51.12-3.43,19-6.18,35.71-8.42,51.14-2.14,14.74-4.58,30.47-7.43,48.08q-.85,5.22-1.68,10.44c-2.13,13.24-4.32,26.94-6.9,40.33a1027.78,1027.78,0,0,1-25,101.38c-1,3.44-2.06,6.88-3.09,10.33-3.5,11.76-7.13,23.93-11.23,35.72-1.78,5.14-3.89,10.24-5.94,15.17q-1.18,2.88-2.36,5.76c4.9,6.43,9.26,12.48,13.33,18.44,3.4,5,6.71,10.24,9.82,15.62.48.64.95,1.28,1.41,1.94l1.86,2.53h0l.76,1-.13-.13.54.7.18.24.24.32,1,1.31.17.24.32.43.41.56.36.48,1.43,1.92c.51.67,1,1.34,1.5,2l.35.47.36.49.46.62.19.24q7.21,9.74,13.37,18.93l1.25,1.9.44.67c2.88,3.87,5.94,8,8.84,12.25,2.24,3.28,4.43,6.68,6.54,10,1,1.6,2.07,3.21,3.11,4.82l.56.85c1.53,2.33,3.11,4.75,4.58,7.19,1.3,2.15,2.54,4.34,3.78,6.52l.92,1.64c2.46,4.31,4.77,8.81,7,13.17l1.79,3.47c1.06,2.05,2.08,4.1,3.09,6.17,2.56,4.07,4.79,7.71,6.83,11.12q1.6,2.45,3.17,4.9c4.2,6.56,8.08,13.13,12.6,21l1,1.78c1.63,2.82,3.32,5.73,4.89,8.65l.07.12.44.79.47.84a.66.66,0,0,1,.07.15s.05.13.05.13l.12.18h0l.11.2.08.19h0a3.18,3.18,0,0,1,.21.39s.05.09,0,.1a.94.94,0,0,0,0,.09l.75,1.27c.49.88,1,1.77,1.45,2.65l1.12,2,.4.75.37.67.51.92.29.55.26.45.51.93.18.32.17.32a.29.29,0,0,1,0,.13s0,.09,0,.09h0l.18.24.65,1.19.69,1.23.87,1.56c.54,1,1.08,1.92,1.62,2.9.18.3.34.61.52.92,1.76,3.18,3.52,6.67,5.33,10.58l.2.32.18.31c2.32,3.9,4.53,7.95,6.68,11.85l1.28,2.34c3.42,6.22,6.81,12.58,10.09,18.73l3.78,7.1,3.66,6.81c3.59,6.7,7.31,13.62,10.84,20.5,4.76,9.25,9.25,18.56,13.35,27.66,2.34,5.18,4.63,10.39,6.91,15.61q2.52,5.74,5.06,11.48t5.12,11.58q3.83,8.65,7.67,17.31c3.77,8.39,7.44,17.14,10.92,26,4,10.18,8.21,20.33,11.85,29.05,3.45,8.27,6.93,17.09,11.28,28.59,1,2.54,1.9,5.08,2.85,7.63,2.53,6.75,5.13,13.74,7.89,20.52,3.39,8.3,7.12,16.6,10.72,24.63l2.15,4.82c8.29,18.51,15.53,37.56,22.25,55.48s12.85,36,19.54,55.91c5.8,17.25,11.25,35.69,17.68,59.82,5.38,20.17,9.94,38.28,14,55.35,2.63,11.18,5.1,22.59,7.49,33.63q2.44,11.35,5,22.68l.28,1.28c2.17,9.63,4.41,19.58,6.14,29.47,1.63,9.38,3,19,4.3,28.23l.12.8c2.18,15.41,4.17,31.1,6.09,46.28.62,4.95,1.26,9.9,1.89,14.86,1.08,8.46,2.32,18.5,3.33,28.75.68,6.93,1.19,14,1.67,20.84.23,3.21.46,6.42.71,9.63.46,5.88,1,11.84,1.55,17.62q.54,5.79,1.06,11.6c.88,10.26,1.49,20.59,2,29.48,1,18.44,1.91,37.2,2.74,55.34,1.11,23.94,1.9,43.32,2.49,61.12.34,10.32.58,20.72.81,31.36q.12,5.4.26,10.82.15,6,.28,12l-.39.57q-7.94,11.45-15.81,22.93-7.26,10.62-14.46,21.24l-1,1.55-.51.75q-6.48,8.92-13,17.79l-4.56,6.19-2.65,3.61-.15.2.34-.48-1.45,2-3.25,4.41-.2.29-.56.78h0l-.09.12,0,.05h0l-1,1.42.11-.17h0l-3.81,5.24c-4.7,6.4-9.55,13-14.4,19.46l-.42.56-.43.58-2.54,3.36-4.63,6.13h0a0,0,0,0,0,0,0M2233.15,2012.06q-1.41,1.65-2.75,3.35c-.82,1-1.65,2.06-2.48,3.1-1.86,2.31-3.78,4.69-5.56,7.11,1.38-1.79,2.81-3.54,4.24-5.29,2.27-2.78,4.62-5.66,6.85-8.56l-.08.19c.22-.35.46-.67.7-1l-.92,1.1m301.54-382.44-.53.46.21-.18.4-.24.28-.36Z" transform="translate(-2030.9 -192.63)"/><path class="cls-3" d="M2332.1,7718.52a44.11,44.11,0,0,1-7-1.64,36.48,36.48,0,0,1-12.25-7.06c-12.8-10.78-19.67-26.22-24.22-38.47a161.92,161.92,0,0,1-6.25-21c-1.54-7.06-1.75-14.2-1.85-22.15l.08.28-.07-.38,0-1.44,0-.36,0-.51c-.06-1.46-.13-2.91-.21-4.36-.54-9.82-1.81-19.75-3.18-29.9a203.87,203.87,0,0,0-5-24.41l-.44-1.63-.08-.28c-2.38-8.51-4.84-17.31-6.57-26.19a147.78,147.78,0,0,1-2.58-18c-.22-3.53-.3-7.26-.37-10.26l-.1-3.61c-.06-2.36-.16-4.71-.26-7.07l-.1-2.36-.1-2.22c-2.08-9-3.5-18.25-4.87-27.16-1.83-11.93-3.22-22.4-4.24-32-1.82-17.37-3-36.35-3.73-58-.57-17.93-1.53-39.21-4.38-61-.81-6.27-1.55-12.57-2.3-18.84l-.07-.53,0-.26-.4-3.35,0-.29c-.25-2.06-.49-4.14-.75-6.21-.93-7.68-1.58-15.37-2.21-22.81l-.55-6.31c-1.74-20.28-3.24-38.53-3.85-56.58-.27-8-.63-17.54-1.26-27.27-.42-6.63-1-13.45-1.56-19.87-.23-2.78-.47-5.55-.69-8.32-.82-10.14-1.24-20.36-1.65-30.23l0-.46c-.37-9.08-.77-18.47-1.49-27.77q-.53-7-1.09-13.92-.63-7.76-1.23-15.51c-.19-2.66-.44-5.33-.7-8l0-.26,0-.29c-.2-2.12-.4-4.25-.58-6.38-.2-2.49-.35-5-.49-7.47-.17-2.81-.38-6.05-.66-9.15-.29-3.32-.73-6.68-1.19-10.14l-.54-4.2c-.33-2.68-.61-5.38-.9-8.07q-.34-3.35-.73-6.69c-.8-6.86-1.45-14.13-2-20-.22-2.52-.42-4.87-.65-7.22-.77-8.42-1.42-17-2-25.35l-.1-1.25-.1-1.41-.56-7.48c-.51-6.84-1-13.69-1.5-20.53-.74-10.93-1.17-20.44-1.32-29.06,0-5.12.16-10.31.35-15.33v-.64l0-1c.11-2.93.22-5.87.27-8.82.18-8.4.07-17.29,0-24.44-.07-4-.2-8.09-.33-12.13v-.22c-.21-6.31-.42-12.83-.38-19.23.07-9.52.22-19.76.86-30.1s1.88-20.49,3.28-31.89l.14-1.09c-.19-1-.35-2.11-.49-3.18a96.76,96.76,0,0,1-.5-10.57,109.66,109.66,0,0,1,1.15-14.42l0-.21.29-2.45.1-.79.08-.7.11-.88c1-8.79,2-17.88,4.15-26.73,2-8.57,4.59-17.13,7-25.1l1.59-5.21.1-.4c1.67-5.51,3.57-11.76,5.57-17.77a209.5,209.5,0,0,1,10.76-26.37c2.36-4.88,5-9.83,8.2-15.55l.22-.34c.61-1.15,1.26-2.29,1.91-3.42,4.23-7.58,8.15-15.09,11.63-22.34,2.07-4.3,4-8.74,5.88-12.92l.31-.69c1.75-4,3.75-8.52,5.86-12.93,3-6.35,6.26-12.78,9.39-19l.15-.3.31-.6,2.3-4.55c3.67-7.29,7.71-15.15,12.33-24,4.08-7.91,8.44-16.3,12.92-24.33l2.5-4.47.8-1.45c3.41-6.13,6.94-12.45,10.34-18.81,1.56-2.95,3.11-5.92,4.64-8.88l.43-.83c2.82-5.45,6-11.59,9.28-17.38,3-5.24,6.17-10.46,9.27-15.5l.42-.68q2.43-4,4.84-7.93t4.91-8.09c2.7-4.43,6.07-9.94,9.21-15.37l.66-1.16.81-1.45q5.63-10,11.27-20c2.85-5.13,5.66-10.26,8.48-15.41l.22-.42,1.17-2.14c3-5.46,6.07-11.05,9.15-16.52,10.07-17.86,21.09-35.24,31.74-52.05,10.32-16.31,21-33.17,30.71-50.24l.25-.42.13-.23,1-1.79,1-1.79.23-.43.22-.39c4.4-7.89,9.12-16.4,13.9-25.24,1.84-3.42,3.72-6.82,5.6-10.22l.42-.75.09-.18c2.85-5.15,5.54-10,8.1-14.84,2.1-4,4.19-8.2,5.71-11.28,2.37-4.79,5.06-10.21,8-15.42,3.73-6.71,7.7-13.45,11.55-20l.5-.85.24-.4,3.87-6.55c2.83-4.84,5.82-9.69,8.48-14,2.36-3.84,4.7-7.64,7-11.47,1.08-1.81,2.14-3.64,3.2-5.45,1.55-2.66,3.08-5.3,4.69-7.9s3.13-5,4.71-7.5l.33-.5,2.26-3.56q3.11-4.91,6.25-9.77l.27-.43c3.2-5,6.83-10.63,10.27-16.14,4-6.44,8.46-12.72,12.78-18.79l.14-.19.19-.26,1-1.38,2.39-3.36q2.8-3.95,5.56-7.94,2.79-7.79,5.68-15.54,3.84-10.29,7.76-20.57l3-7.81c4.32-11.47,8-20.2,11.81-28.31q1.7-3.6,3.42-7.18l.34-.71c2.78-5.84,5.94-12.46,8.8-18.89,3.9-8.85,8.06-18.35,11.95-27.85l1.09-2.72.22-.52c1.37-3.41,2.63-6.48,4-9.54,1.19-2.65,2.41-5.3,3.64-7.93l.3-.65.16-.36,2.14-4.62c2.31-5.06,4.58-10.28,6.59-14.88l.37-.86q2.37-5.49,4.79-10.95c2.51-5.65,5.51-12.28,8.82-18.66,3.45-6.73,7.61-13.58,10.95-19.09,2.7-4.47,5.4-8.88,8.12-13.29,4.89-8,9.3-15.14,13.59-22.43,3.22-6,6.13-12.26,8.93-18.33l.75-1.61c.73-1.56,1.45-3.11,2.19-4.66,3.23-6.87,6.57-13.71,10-20.71l.47-.95,2.41-4.91c3.33-6.84,6.62-13.84,9.79-20.61l.48-1,1.95-4.17c5-10.65,8.71-19,12.1-26.95l3.74-8.9.67-1.6c2.4-5.72,4.8-11.44,7.27-17.13,1.73-4,3.5-8,5.27-12,2.09-4.73,4.18-9.45,6.22-14.21,2.23-5.22,4.37-10.5,6.56-15.89l.45-1.1,1-2.41.54-1.33c.83-2.05,1.66-4.09,2.51-6.12,3.74-9.05,7.69-18.19,11.74-27.16,3.67-8.17,7.69-16.83,12.28-26.48,4-8.52,8-17.39,11.84-26.37l.17-.39c3.73-8.78,7.11-16.69,10.82-24.63,1.77-3.8,3.59-7.59,5.42-11.36l.6-1.25.55-1.16c2-4.08,3.9-8.11,5.8-12.16,2.51-5.39,4.83-10.89,7.08-16.21l.12-.27,1.71-4,.88-2.07c2.51-5.89,5-11.79,7.45-17.72s5.2-11.92,7.65-17.24l.45-1c2.55-5.6,5.67-12.21,9.36-18.81,5-8.81,9.45-16,14-22.71,5-7.27,10.66-14.79,18-23.65a81.73,81.73,0,0,1,9.14-9c1-.86,2-1.74,2.94-2.63l.4-.38.17-.15c1.51-1.37,3.11-2.82,4.72-4.19a104.25,104.25,0,0,1,18.77-12.37c2-1,3.95-1.89,6-2.79a79,79,0,0,1,8.75-3.51c4.71-1.49,9.81-1.76,14.61-1.84h.23a37.35,37.35,0,0,1,11.17,1.53c2.33.7,4.7,1.65,6.79,2.49l.73.3a61.63,61.63,0,0,1,14.72,8.19,37.36,37.36,0,0,1,6.74,7.73l.54.72.57.78a35.37,35.37,0,0,1,2.44,3.54c1.36,2.31,2.63,4.78,3.74,7l.44.89.26.5.15.27c1.19,2.36,2.43,4.79,3.45,7.19a61.66,61.66,0,0,1,3.16,8.9c.59,2.28,1,4.67,1.37,6.77a139.94,139.94,0,0,1,2.05,18.5,114.27,114.27,0,0,1-1.67,22.92c-.69,4-1.42,7.59-2.25,11-.6,2.43-1.26,4.85-1.92,7.27l-.32,1.17-.27,1c-.24.89-.48,1.77-.7,2.66l-1.07,4.34-.16.62c-1.48,6-3.16,12.84-5.18,19.25q-1.14,3.6-2.3,7.2l-.33,1-.41,1.28-.53,1.65-.24.77c-1.37,4.28-2.74,8.56-4.07,12.85-5.64,18.32-10.78,33.21-16.2,46.86-1,2.4-2,4.78-3,7.17l-.35.81-.22.53c-1.13,2.67-2.22,5.24-3.27,7.83-1.72,4.4-3.39,8.91-5,13.28l-.2.52-.15.42-.17.47c-2,5.28-3.73,10.05-5.63,14.83l-1.52,3.79-.43,1.05c-2.19,5.54-4.2,11-6.32,16.87q-1.92,5.31-3.91,10.6c-3,8.07-6.31,16.09-9.13,23-.34,1-.64,1.94-.95,2.85-4.51,13.53-9.49,26.82-13.33,36.9-.77,2-1.53,4-2.31,6-2.25,7-4.33,13.27-6.37,19.25q-1.8,5.28-3.61,10.55l-1.19,3.47c-1,2.83-2,5.66-2.91,8.49-.65,1.95-1.28,3.91-1.92,5.88l-.28.88-.1.32c-.52,1.6-1,3.2-1.58,4.8-.77,2.27-1.58,4.53-2.4,6.79l-.22.63-1.68,4.7c-.52,1.67-1,3.3-1.56,4.92-.88,2.81-2,6-3.31,9.69-.36,1.28-.72,2.54-1.11,3.8-.68,2.26-1.37,4.31-2.1,6.25-.3.81-.61,1.62-.94,2.42q-1.43,4.56-2.8,9.13c-.52,1.75-1,3.42-1.57,5.09l-.1.33a6.31,6.31,0,0,1-1.49,2.88c-4.66,13.65-10.06,28.06-14.39,39.64l-.27.71c-2.11,5.68-4.16,11.42-6.34,17.5l-.1.3-.3.84c-2.54,7.13-5.17,14.51-8,21.77-5.1,13.31-10.6,27.56-16.26,41.52-2.42,6.24-4.68,12.86-6.67,18.69-.73,2.15-1.43,4.19-2.13,6.23-1.9,5.51-4.08,11.06-6,16l-.46,1.2c-1.23,3.13-2.43,6.24-3.6,9.36-3.45,9.34-7.18,18.46-11.06,27.09l-1.29,2.87-.31.68c-2.86,6.36-5.82,12.94-8.5,19.53-1.78,4.68-3.43,9.43-5,14-.93,2.73-1.87,5.45-2.85,8.16-2.82,7.95-5.26,15.24-7.45,22.3l-.59,1.92c-4.35,14-8.85,28.53-12.57,43.17a439.32,439.32,0,0,0-9.15,51.13,216.89,216.89,0,0,0-1.8,24.92,176.52,176.52,0,0,0,1.32,18.71,108.37,108.37,0,0,0,2.25,10.87c.91,3.13,1.77,5.74,2.72,8.19,1,2.28,2.16,4.47,3.29,6.51s2.59,4.05,4.08,6.12c1.47,1.79,3,3.58,4.38,5.1l.23.27c1.33,1.52,2.84,3.24,4.22,4.95,2.12,2.66,4.15,5.48,6,8.15l.41.57.55.75.7,1,1.3-1.71,2.52-3.24a167.62,167.62,0,0,0,11.13-17.45l-.25.49c4.46-8,8.35-16.34,11.56-23.47q3.81-8.46,7.54-17l3.64-8.24,4-9c6-13.52,12.24-27.49,17.84-41.45l-.63,1.68c1.26-3.25,2.55-6.49,3.84-9.72l-.1.29.5-1.32c2.54-6.38,5.16-13,8-19.36q2.19-4.92,4.41-9.85,2.86-6.37,5.71-12.77l3.08-6.95c5.46-12.33,11.12-25.07,16.26-37.78,3.58-9.06,7.36-19,11.55-30.45,2.31-6.3,4.54-12.74,6.69-19q2.43-7.05,4.92-14.07c3.89-10.93,8.29-22,13.09-33l1.87-4.28c3.94-9,8-18.34,11.78-27.6l.11-.24h0c3.34-8.44,6.43-17.12,9.43-25.52,1.1-3.09,2.2-6.19,3.33-9.28,4.88-13.53,10.68-27.11,15.74-38.78,1.62-3.74,3.21-7.49,4.81-11.24,3.8-8.94,7.73-18.19,12-27.11,2.32-4.91,4.82-9.83,7.24-14.6,3.62-7.14,7.38-14.54,10.64-22,1.23-2.83,2.4-5.7,3.56-8.56,1.79-4.58,3.54-9.18,5.29-13.79,2.18-5.71,4.36-11.43,6.61-17.12l.1-.25a2.2,2.2,0,0,1,.09-.21l.19-.51.23-.55-.06.24-.08.22c5-12.67,10.93-25.19,16.63-37.3l2.82-6c2-4.33,4-8.69,6-13,.43-1.41.83-2.68,1.24-4,2.32-7.35,4.62-13.9,7-20,1.6-4.06,3.32-8.14,5-12.1,1.22-2.91,2.44-5.81,3.63-8.73l.1-.26.16-.39c.08-.22.16-.44.25-.66l.75-1.9q.91-2.35,1.86-4.72l-.18.53.61-1.6.63-1.57-.25.72c1.59-4.09,3.32-8.17,5-12.13,1.14-2.71,2.29-5.42,3.41-8.14,1.31-3.38,2.56-6.78,3.81-10.19.75-2,1.48-4,2.24-6,2.52-6.75,5.36-13.33,8.06-19.44,4.35-9.87,9.45-21.59,14.29-33.61q1.95-5.05,3.87-10.12c1.58-4.17,3.16-8.34,4.81-12.48v0l1.66-4.16c4.24-10.74,8.05-21.85,11.73-32.58,1.68-4.9,3.36-9.79,5.08-14.68,6.1-17.27,11.68-32.81,18.24-48l2.85-6.59q3.54-8.18,7.05-16.37c3.79-8.87,7.22-16.86,10.92-24.76,2.45-5.25,5-10.55,7.55-15.66l3.37-6.88c3.71-7.64,7.23-15.26,10.49-22.36q2.88-6.3,5.81-12.56c1.83-5.15,3.56-10.43,5.23-15.54l1.77-5.37c2.45-7.42,5.17-14.87,7.8-22.08l.45-1.21c1.64-4.52,3.19-9.15,4.68-13.62q1.35-4.06,2.73-8.1c2.41-7,5-14.14,7.82-21.17a1.07,1.07,0,0,1,.07-.19c.21-.55.44-1.1.65-1.65l-.28.82c4.22-10.58,8.73-20.84,13.37-30.5,2.59-5.39,5.37-10.79,8.07-16,2.4-4.68,4.91-9.53,7.25-14.35q3.85-7.92,7.67-15.86c8.7-18.06,17.69-36.72,27.45-54.6,5.49-10.08,11.65-20.44,18.29-30.78,8.21-12.79,15.22-22.92,22.07-31.86a163.53,163.53,0,0,1,14.51-16.5,125.08,125.08,0,0,1,16.89-13.41c12.82-8.88,25.12-13.39,36.56-13.39.57,0,1.13,0,1.7,0a49.88,49.88,0,0,1,12.4,2.25c6.69,2,13.12,7.33,17.64,14.66,6.78,11,10.56,25,11.58,42.74a121.82,121.82,0,0,1-.7,22.72,187.79,187.79,0,0,1-3.86,20c-3.65,15-7.36,28.06-11.36,39.92-2.07,6.16-4.19,12.3-6.31,18.45-2.38,6.92-4.77,13.83-7.09,20.77-1.88,5.66-3.81,11.32-5.73,17-2.43,7.15-4.86,14.29-7.23,21.46-1.61,4.91-3.28,9.81-5,14.7-2.51,7.37-5.11,15-7.49,22.55-1.55,5-3.17,10.31-4.93,16.36l-1.12,1.55-1.07,1.48c-.17.71-.37,1.44-.56,2.15l-.43,1.63c-.14.6-.32,1.22-.5,1.84l-.13.49-.57,2-.36,1.23c-.37,1.24-.73,2.5-1.1,3.74-.45,1.46-1,3-1.53,4.49-.27.71-.56,1.4-.87,2.09-.18.39-.4.76-.61,1.13a4.88,4.88,0,0,1-1,1.31c-1.09,2.83-2.15,5.61-3.25,8.38-1.27,3.2-2.67,6.56-4.54,10.91-.89,2.07-1.84,4.11-2.78,6.16q-1,2.16-2,4.35c-.53,1.17-1,2.36-1.54,3.55-1,2.73-2.13,5.7-3.47,9.05l-.52,1.33-.41,1-.09.2-.76,1.92-.34.86-.61,1.57-.8,2,0,0c-1.74,4.37-3.52,8.73-5.29,13.09q-2.4,5.85-4.76,11.73l.19-.57c-2.82,7.19-6.07,14.93-10.16,24.28l-1,2.38c-1.4,3.22-2.85,6.55-4.39,9.78-1.34,2.82-2.73,5.63-4.1,8.44l-2,4c-.64,1.32-1.3,2.64-2,4l-.1.29-.07.23c-2.58,7.74-5,14.78-7.51,21.51l-1.48,4c-2.14,5.76-4.34,11.74-6.4,17.66-2.24,6.41-4.69,12.87-7.06,19.11l-.64,1.68c-1.44,3.82-2.9,7.65-4.42,11.45l.34-.92c-1.41,3.65-3,7.29-4.6,10.79l-.81,1.81c-1,2.17-1.94,4.35-2.94,6.51-.8,1.71-1.67,3.39-2.54,5.08l-.92,1.8q-1.41,2.78-2.74,5.56-.51,1.51-1,3c-1.43,4.08-2.85,8.06-4.44,12-.7,1.75-1.43,3.49-2.16,5.23-.62,1.49-1.25,3-1.86,4.48q-1.84,4.72-3.7,9.44c-2.35,6-4.71,12.05-7.13,18.06-.72,1.88-1.42,3.78-2.12,5.68-.54,1.45-1.07,2.9-1.62,4.36-.85,2.24-1.81,4.47-2.75,6.63-.64,1.51-1.29,3-1.91,4.54l-1.85,4.72q-1.68,4.32-3.39,8.63l0-.07c-1.77,4.51-3.33,9.17-4.85,13.67-.65,1.95-1.3,3.9-2,5.85-1.94,5.62-4.21,11.2-6.41,16.6l-1.8,4.47c-.89,2.31-1.71,4.66-2.54,7-.57,1.65-1.15,3.28-1.75,4.92-1.65,4.52-3.48,9.07-5.24,13.48l-.79,1.93-.12.33c-2.1,5.28-4.26,10.75-6.52,16.08-1,2.41-2.09,4.8-3.16,7.18-1.36,3.05-2.78,6.19-4.05,9.33-.74,1.91-1.45,3.82-2.15,5.75s-1.49,4.05-2.28,6.05c-1.23,3.17-2.65,6.33-4,9.38-1.14,2.55-2.27,5.1-3.33,7.68-1.17,3-2.27,6.13-3.33,9.13s-2.22,6.24-3.42,9.33q-1.28,3.33-2.53,6.68c-1.65,4.35-3.35,8.86-5.16,13.23-1.89,4.55-4,9.1-6,13.5-1,2.17-2,4.34-3,6.53-.7,1.55-1.38,3.12-2.06,4.68-.86,2-1.73,4-2.63,5.92-1.12,2.42-2.59,5.63-4,9-.76,1.94-1.52,3.9-2.27,5.85-.87,2.26-1.75,4.53-2.65,6.78l-.16.42-.19.48c-1,2.52-2,5.07-3,7.62-1.59,4.11-3.18,8.22-4.84,12.3q-1.74,4.44-3.46,8.87c-1.71,4.43-3.47,9-5.3,13.47-1.22,3-2.48,6-3.73,9l-.63,1.49-.48,1.28c-.89,2.34-1.78,4.69-2.74,7-.8,1.94-1.67,3.84-2.54,5.75l-.33.7c-1.18,2.76-2.39,5.5-3.63,8.24-2.5,5.88-5,11.95-7.12,17.31-.11.27-.27.66-.42,1.06l-.44,1.09-.43,1.08-.09.23-.81,2.05,0,0-.19.48.05-.15-.18.49-.37.92q-1.12,2.91-2.27,5.81c-2,5.17-4.14,10.52-6,15.85l-1.42,4c-1.88,5.38-3.82,10.94-6,16.34l-.6,1.52.1-.33c-.59,1.58-1.19,3.14-1.8,4.72q-1.29,3.36-2.62,6.7l.08-.25c-.84,2.27-1.63,4.58-2.39,6.82l-.86,2.56c-.86,2.49-1.82,5-2.75,7.38l-.87,2.27c-.58,1.54-1.14,3.1-1.7,4.65-.65,1.77-1.29,3.54-2,5.3-.82,2.12-1.71,4.23-2.6,6.33q-1,2.28-1.92,4.59c-2.59,6.62-5.42,13.74-8.49,20.84a199,199,0,0,1-9.74,18.86v0l-.12.2c-2,3.58-4,7.4-6.05,11.62-1.84,3.8-3.94,8.12-5.71,12.45-.61,1.58-1.29,3.31-2,5s-1.42,3.67-2.15,5.49l.06-.23c-.54,1.48-1.14,2.93-1.72,4.39l-.4,1c-1.38,3.49-2.74,6.9-4.3,10.25-.63,1.35-1.27,2.7-1.93,4s-1.31,2.7-1.94,4.05q-2.73,5.9-5.39,11.83l-2.08,4.58c-.7,1.54-1.36,3.09-2,4.64-.51,1.19-1,2.39-1.54,3.56l-.63,1.42c-.89,2-1.78,4-2.6,6-1.17,2.86-2.37,5.71-3.57,8.56-1,2.4-2,4.8-3,7.21-3,7.28-6.31,14.56-9.52,21.6-1.67,3.67-3.33,7.33-5,11-1,2.28-2.14,4.54-3.23,6.73l-.63,1.25c-.7,1.41-1.36,2.82-2,4.24-.57,1.24-1.15,2.47-1.76,3.69-1.18,2.42-2.45,4.8-3.72,7.18l-.57,1.07c-1.2,2.75-2.4,5.49-3.62,8.24a14.51,14.51,0,0,1-1.13,5.28l-.32.92c-.65,2-1.35,4-2,5.92-.51,1.45-1,2.89-1.51,4.34-1.59,4.72-3.48,9.39-5.31,13.91-.56,1.39-1.12,2.78-1.67,4.17-.64,1.59-1.36,3.31-2.07,5-.53,1.26-1.06,2.52-1.58,3.78-2.12,5.49-3.77,11.25-5.23,16.35-.81,2.8-1.71,5.63-2.59,8.36-.7,2.21-1.4,4.41-2.06,6.64-.82,2.71-1.74,5.36-2.62,7.81s-1.59,4.72-2.32,7l-.65,2c-.58,1.81-1.16,3.61-1.76,5.42,2.05-1,4.21-2.12,7-3.7l0,0,.13-.07c1.58-.93,3.46-2.07,5.29-3.38l2.08-1.45c1.15-.8,2.3-1.59,3.41-2.42a191.92,191.92,0,0,0,15.73-13.84c.52-.53,1-1.07,1.52-1.61s1.25-1.36,1.89-2l.4-.4-.1.16.44-.48.56-.56c1.34-1.36,2.63-2.81,3.83-4.17,1.33-1.52,2.76-3,4.15-4.41l.38-.39.48-.49a51.25,51.25,0,0,0,4.17-4.63c.72-.93,1.46-1.85,2.19-2.77s1.4-1.75,2.09-2.64c1.15-1.52,2.37-3,3.58-4.5,1-1.3,2.11-2.59,3.13-3.92s2-2.95,3-4.41c.66-1,1.33-2.07,2-3.08,1.44-2.08,2.82-4.25,4.16-6.35l1.06-1.64c4.2-6.53,7.56-12,10.57-17.2l.18-.33.38-.69-.13.28.84-1.57c.67-1.23,1.35-2.47,2.05-3.69l.3-.53-.33.67c1.89-3.43,3.87-6.81,5.87-10.2,1.84-3.14,3.7-6.28,5.49-9.46l-.4.78.7-1.35c.89-1.62,1.78-3.23,2.75-4.82,1.08-1.78,2.21-3.55,3.34-5.31l.67-1.05c2-3.14,4.06-6.37,6.16-9.5l1-1.49c1.87-2.76,3.8-5.62,5.54-8.54.71-1.19,1.4-2.38,2.09-3.59,1.17-2,2.33-4,3.56-6,1.95-3.15,3.85-6.4,5.69-9.55s3.74-6.39,5.7-9.54q1.32-2.13,2.68-4.23c1.22-1.92,2.45-3.84,3.63-5.79l1.2-2c1.5-2.51,3.06-5.11,4.69-7.6,2.17-3.3,4.34-6.59,6.58-9.84s4.46-6.55,6.53-9.83c1.15-1.83,2.27-3.69,3.37-5.55l-.12-.17c1.11-2.16,2.22-4.31,3.32-6.42l.94-1.82c1.17-2.27,2.34-4.53,3.5-6.8,4.52-8.86,9-17.34,13.2-25.19l3.14-5.92.85-1.62.35-.65c2.09-3.93,4.18-7.87,6.33-11.78,2.64-4.84,5.46-9.72,7.95-14l1.74-3,1.72-3c2.75-4.94,5.37-9.92,8.27-15.45,2.75-5.23,5.82-11.06,8.9-16.56a.27.27,0,0,1,.08-.1l.07,0h0a.69.69,0,0,1,.07-.25l.38-.69.29-.5c1.81-3.25,3.66-6.48,5.51-9.7l.41-.73.77-1.34.41-.72.41-.72c1.82-3.23,3.61-6.49,5.38-9.74l.71-1.29.66-1.21c1.29-2.35,2.59-4.7,3.9-7,1.17-2.06,2.36-4.12,3.54-6.17l.88-1.53,2.71-4.72c4.58-8.3,8.91-16.65,12.9-24.44l2.75-5.34.19-.37c3.16-6.14,6.73-13.08,10-19.95,4.16-8.81,8.15-17,12.18-25.07,1.86-3.71,3.84-7.45,5.76-11.06l.17-.31.3-.57c2.14-4,4.56-8.52,6.82-13.1l.15-.3c13.16-26.66,26.74-54.18,38.24-82.51,2.84-7.27,5.53-14.72,8.13-21.92l.25-.68.08-.24.19-.5c3.61-10,7.35-20.35,11.51-30.33,3.63-8.72,7.44-17.46,11.31-26s7.61-16.89,11.38-25.35l.72-1.61c1.68-3.77,3.33-7.55,5-11.33,2.1-4.84,4.43-10.18,6.81-15.4,4.33-9.5,9.07-18.57,13.55-27,3.32-6.27,6.61-12.67,9.83-18.9l.38-.73.71-1.39c.49-2,1.09-4.36,1.81-6.75a62.86,62.86,0,0,1,3.18-8.05l.65-1.45c.47-1.1,1-2.19,1.42-3.29l.27-.64c.86-2,1.73-4,2.65-6,1.58-3.41,3.4-6.75,5.17-10l.56-1,1.55-2.85,1.05-2c2-3.76,4.23-7.91,6.55-11.81,1.15-2,2.34-3.91,3.55-5.83.94-2.5,1.58-4.4,2.09-6.14a1.79,1.79,0,0,1-.67-1.77,1.75,1.75,0,0,1,1.77-1.41,1.59,1.59,0,0,1,1.48.87,3.38,3.38,0,0,1,.57.86l.13-.25.18-.24.65-.88a52.53,52.53,0,0,1,12.48-11.47,38.76,38.76,0,0,1,17.83-6.46,61.2,61.2,0,0,1,6.52-.31c1.42,0,2.85,0,4.27.07l.54,0a68.08,68.08,0,0,1,11.27,1.35l.64.12c5.5,1.07,11.15,2.18,16.18,4.71,5.92,3,10.91,7.48,14.6,11.08,2.4,2.4,4.72,4.93,7.08,7.74a69.53,69.53,0,0,1,6.37,8.73,65.61,65.61,0,0,1,8.24,20.18c1.6,7.87,1.32,16.17.78,23.95-.66,9.23-1.42,17.55-2.32,25.43l0,.34-.39,3.69-.39,3.81c-.44,4.23-.88,8.45-1.38,12.67l-.24,2.16c-.16,1.49-.32,3-.49,4.47-1.1,8.74-3,17.48-4.94,25.93l-.35,1.6c-2.53,11.2-5.33,21.84-8.35,31.64-2.61,8.43-5.63,16.82-8.55,24.93l-.1.29-1.17,3.23c-1.71,4.81-3.31,9.88-4.72,14.35l-.11.33c-1.38,4.39-3.12,9.85-5,14.94-3.85,10.62-7.67,21-11.93,31.29-.89,2.17-1.77,4.36-2.66,6.54l-.23.59-.18.45c-1.1,2.71-2.19,5.42-3.34,8.11-1.76,4.18-3.83,8.67-6.53,14.17-2.17,4.44-4.54,9-6.44,12.64l-.23.45c-2.56,4.91-5.46,10.49-8,15.94-1,2.17-2,4.36-2.95,6.56l-.37.8-.35.78c-1,2.22-1.94,4.42-2.95,6.6-2.34,5.11-4.84,10.07-7.43,14.72a141.85,141.85,0,0,0-6.27,12.83c-2,5.34-3.85,10.83-5.63,16.14l-.07.2-.64,1.93c-.6,1.75-1.19,3.49-1.79,5.23-3.28,9.59-7.13,19-10.78,27.76-3.11,7.48-6.62,15.13-9.71,21.88l-.19.4-.27.61-.1.22c-3.56,7.77-7.24,15.8-10.5,23.85-2.86,7.26-5.65,14.55-8.43,21.83l-.29.74c-3.13,8.22-6.77,17.74-10.37,26.74l-.54,1.39-.25.6-.08.22-1.44,3.57-3.57,8.89c-1.87,4.72-3.76,9.42-5.66,14.14l-3.31,8.22c-.93,2.35-1.84,4.7-2.75,7.06-1,2.7-2.1,5.41-3.18,8.1l.1-.35-.11.34h0a1.89,1.89,0,0,0-.09.19c-1.67,4.18-3.41,8.36-5.12,12.43l-.52,1.26c-1.65,3.95-3.3,7.9-4.9,11.87-2.79,7.08-5.57,14.14-8.4,21.2l-.37.94-.73,1.82-.09.22c-2.88,7.19-6,14.36-9,21.3l-.39.87-1.05,2.45c-.86,2-1.68,3.85-2.48,5.72-1.86,4.36-3.69,8.83-5.47,13.17l-.42,1-.38.92-.15.37c-1.9,4.66-3.92,9.61-6,14.48-4.12,9.63-8.68,20-13.57,30.85q-2.55,5.69-5,11.38c-2.94,6.68-6,13.58-9.13,20.23-2.28,4.83-4.58,9.51-7.36,15.13l-.34.7c-2.5,5.09-5.09,10.36-7.55,15.56-4.16,8.85-8.11,17.82-11.93,26.48l-.21.48-1.91,4.33c-7,15.85-14.54,31.76-21.87,47.13l-.16.33-.19.41-5.17,10.84-.49,1c-4.84,10.21-9.58,20.19-14.43,29.95s-9.69,19.07-16,30.91c-11.71,22.05-21.4,40.59-30.68,59.39-5.93,12-11.15,23.05-16,33.65-1.65,3.65-3.24,7.47-4.65,10.85l-.26.61c-.84,2-1.69,4.08-2.57,6.12l-1.22,2.88-.22.52c-1.92,4.51-3.9,9.15-5.78,13.77-3.45,8.77-8,20.25-12.85,31.32l-2,4.61q-5.19,12-10.45,23.92c-1.33,3-2.63,6-3.93,9-2.42,5.63-5.16,12-8.14,18.17-4.62,9.6-9.84,19.39-16,29.94a104.81,104.81,0,0,1-7.12,11.09l-1.66,6-.37,1.3c-1.69,6-3.6,12.84-5.32,19.47-.89,3.63-1.72,7.27-2.54,10.91l-.25,1.09-.07.33c-1,4.5-2.09,9.16-3.21,13.72-1.81,7.18-3.95,14.31-6,21.22-1.55,5.13-2.71,9.07-3.75,12.77-.74,2.61-1.46,5.21-2.19,7.82l-.53,1.92-.42,1.54-.1.35c-2,7.21-4.05,14.66-6.26,22.05-6.07,20.32-12.15,41.68-18.6,65.27q-2.22,8.11-4.39,16.28l-.2.77-.69,2.56c-1.23,4.57-2.42,9-3.63,13.5-3.08,11.21-6.45,22.71-9.34,32.48-2.93,10-6.38,21.59-10.23,32.71-3.87,11.27-7.84,22.43-11.55,32.8l-.08.25c-3.79,10.61-7.7,21.58-11.37,32.69-1.55,4.63-3,9.27-4.49,13.93l-.32,1-.13.44c-1.81,5.69-3.68,11.58-5.67,17.34-3.74,10.91-8.05,21.42-12.9,33.06-4,9.61-8.28,19.85-13.13,30-5,10.53-10.41,21.11-15.53,31l-4.29,8.33-.82,1.61-1,1.83q-4.71,9.15-9.46,18.28c-5.49,10.55-11.18,20.32-17.5,31.09-4.92,8.41-10.75,18.3-16.81,28-6.62,10.66-12.82,20.25-19,29.33-3.88,5.76-7.71,11.63-11.62,17.64-2.2,3.37-4.4,6.75-6.62,10.11l-3.32,5.06-.38.59-.56.85c-4.72,7.17-9.61,14.59-14.58,21.76-2.37,3.41-4.7,6.86-7,10.32l-1,1.47c-3.25,4.83-6.91,10.29-10.6,15.5-11,15.6-20.39,28.65-30.33,41.64a378.9,378.9,0,0,1-30.9,34.94l-5.8,5.78-3.28,3.26c-7.58,7.74-14.64,15.74-22.43,24.65l-8.13,9.31-.3.35-2.49,2.84q-5.82,6.66-11.66,13.31c-6.34,7.19-13.9,15.65-21.88,23.9-1.68,1.74-3.38,3.47-5.08,5.2l-1.05,1.06-1.78,1.82c-.4.39-.79.79-1.18,1.2-.67.7-1.33,1.39-2,2.05s-1.11,1.15-1.7,1.68c-8.39,8.46-15.94,16.32-23.07,24q-3,3.21-5.93,6.45l-1.05,1.17c-4.71,5.17-10.06,11-15.51,16.57l-5.21,5.29-.66.67c-5.74,5.83-12.24,12.43-18.61,18.6l-3.39,3.27-4.22,4.07q-8.49,8.2-17,16.44c-3,2.9-6,5.8-8.94,8.75q-3.91,4-7.8,8.06l-1,1q-4.6,4.78-9.25,9.53l-.18.19-1.75,1.76.13-.26-.17.18h0v0h0l-.82.85c-1.7,1.71-3.47,3.43-5.25,5.15-11,10.57-22.72,20.83-35.84,31.35-4,3.22-8.05,6.48-12.06,9.73l-1.49,1.21c-10.89,8.82-22.15,17.95-33.77,26.76q-1.2.91-2.4,1.8l-.64.47-1.48,1.09-1.41,1.05c-7.21,5.55-15.76,12.07-24.51,18.43l-1.61,1.18c-8.25,6-16.71,12.16-25.6,17.25a135,135,0,0,1-32.6,13.79,47.13,47.13,0,0,1-11.87,1.63,39.91,39.91,0,0,1-5.51-.39m-22.63-122.58c.17,3.17.33,6.28.53,9.38.27,4.32.54,9.44.54,14.59,0,1.89-.05,3.79-.09,5.69l0,.73,0,.75c0,2.14-.1,4.28-.11,6.43.08,2.76.24,5.16.49,7.31s.79,4.23,1.37,6.53c1.36,4.5,3.05,9.21,5.31,14.81,1.62,3.62,3.11,6.88,4.8,10,1.38,2.11,2.62,3.88,3.78,5.42.84,1,1.69,1.91,2.58,2.84,1.22,1.18,2.36,2.2,3.49,3.14l.2.15.55.35.34,0,.65-.05q1-.19,2.1-.45c1.33-.41,2.64-.88,4-1.41,5-2.17,10-4.61,14.84-7.28,5.51-3.33,10.67-7.13,15.5-10.74,5.13-3.83,10.25-7.66,15.33-11.54l3.59-2.78,4.74-3.68.11-.06h0l.08,0c1.1-.9,2.11-1.69,3.12-2.5,5.39-4.28,10.73-8.73,15.9-13l.2-.17.54-.46,3.87-3.24q3.28-2.73,6.51-5.53l-.69.17c-1.09.25-2.19.45-3.3.64a95.56,95.56,0,0,1-16.78,1.58c-1.58,0-3.28-.07-5.06-.17-7-.46-13.37-2.36-21-4.78-4.39-1.38-9.48-3-14.45-4.9A236.15,236.15,0,0,1,2329.8,7598l-1.88-1-1.84-1c-2.43-1.35-4.85-2.7-7.26-4.07a69.88,69.88,0,0,1-10-6.94c.25,3.68.44,7.37.64,11.06m1107.69-2625.1c-.33,2.48-.86,5-1.37,7.28.61-2.29,1.25-4.57,1.87-6.86.17-.59.34-1.19.5-1.78l.23-1,0-.05-1.25,2.38" transform="translate(-2030.9 -192.63)"/><path class="cls-5" d="M2616,7001.71h-3.82a90,90,0,0,1-12.14-.58l-1.11-.17c-1.12,0-2.24,0-3.35-.11-2.34-.13-4.7-.41-7-.69l-.61-.07h.11a141.08,141.08,0,0,1-15.32-3.21l-.32-.08c-5.79-1.44-10.87-2.93-15.52-4.56-4.06-1.42-7.84-2.83-11.54-4.29-1.89-.47-3.74-1-5.6-1.48l-1-.27c-1.39-.37-2.83-.75-4.21-1.24a24.6,24.6,0,0,1-5.26-2.62c-.66-.44-1.3-.9-1.91-1.38-3.14-.91-6.86-2-10.56-3.41a77.72,77.72,0,0,1-8.06-3.35c-1.81-.89-3.6-1.92-5.43-3l-1-.55c-.94-.52-1.87-1-2.82-1.53l-.68-.38c-1.49-.81-3-1.63-4.45-2.48-1.68-1-3.32-2-4.91-3.07l-1.84-1.2-1.83-1.18c-1.68-1.07-3.35-2.14-5-3.28l-1.42-1-1.41-1-.37-.28c-1.38-1-2.74-2-4.13-2.92a78,78,0,0,1-8.65-6.6c-2.63-2.38-5.06-4.8-7.75-7.49a149,149,0,0,1-13.25-15.29c-1.56-2.09-3.09-4.25-4.56-6.35l-.44-.63q-1.62-2.32-3.27-4.62a141.64,141.64,0,0,1-8.21-13.13l.1.13c-1.35-2.31-2.59-4.53-3.83-6.74-1.08-1.91-2.14-3.83-3.23-5.73-2.49-4.37-4.6-9-6.63-13.47l-.44-1a165.47,165.47,0,0,1-7.55-19.39,183.26,183.26,0,0,1-5.43-21.33c-2.67-14.4-5.18-29.89-5.51-45.56-.05-2.61,0-5.26,0-7.83v-.52c0-1.39,0-2.78,0-4.17,0-2.79.06-6.08.25-9.42.34-5.31.78-10.66,1.24-16.12l.44-5.36c.85-10.36,2.28-20.82,3.65-30.93l0-.29,0-.33c.79-5.83,1.62-11.86,2.31-17.81.25-2.12.48-4.23.72-6.35l0-.22c1.3-11.67,2.64-23.73,5.13-35.41,2.06-9.56,4.31-18.14,6.89-26.2,2.4-7.54,4.93-15.22,7.51-22.82a363.43,363.43,0,0,1,15.33-37.08c3.14-6.71,6.72-13.06,9.49-17.84l.88-1.53.12-.2c2.23-3.86,4.53-7.85,7.07-11.61.75-1.11,1.47-2.24,2.18-3.36l.35-.55c.77-1.21,1.55-2.42,2.34-3.61,1.47-2.21,3.12-4.34,4.71-6.4l1-1.33c2.39-3.23,4.75-6.78,6.65-9.62l.65-1c.8-1.18,1.59-2.37,2.39-3.54l.11-.17.11-.16a34.74,34.74,0,0,1,4.76-6c1.41-1.31,3.63-2.7,5.62-2.7a3.57,3.57,0,0,1,1.23.2,3,3,0,0,1,.52.22l.56,0a6.71,6.71,0,0,1,4.62,1.76,115.9,115.9,0,0,1,11.94,13.35c2.66,3.46,5,7.07,7.16,10.48s4.26,6.81,6.34,10.23l3.16,5.17.5.82c3,4.91,6.11,10,9,15.1l.57,1,.44.76c.14.26.29.53.45.79a169.45,169.45,0,0,1,9.06,17.81l2.43,5.54.71,1.6c1.57,3.55,3.13,7.09,4.63,10.66s3,7.55,4.85,12.74a93.27,93.27,0,0,1,2.92,11l.28,1.36c.76,3.32,1.43,6.69,2.1,10.05l.45,2.3c.43,2.12.79,4.26,1.15,6.4l.06.37h.72a124.62,124.62,0,0,1,13.36,1.27c1.67.23,3.25.45,4.83.64l.23,0v0l.79,0,2.63.33c3.75.48,7.07,1,10.16,1.69a108.91,108.91,0,0,1,13,3.88c4.6,1.59,9.11,3.1,13.62,4.62l1.69.57c3.19,1.07,6.4,2.14,9.59,3.23l2,.65.46.15c3,1,6.13,2.06,9.15,3.22a145.47,145.47,0,0,1,13.86,6.26c3.39,1.7,6.79,3.35,10.19,5l.93.45c4.72,2.28,9.5,4.59,14.13,7,7.33,3.8,14.36,8.14,21.16,12.34l1.32.81,3.48,2.14,2.62,1.59,1.61,1c3,1.81,5.73,3.44,8.4,5.17,4.59,2.95,8.7,5.8,12.6,8.71,5.31,4.05,10.21,8.07,15,12.31s9.86,9,15.15,14.29l-.38-.29.62.56.59.58q1.7,1.68,3.29,3.34l.18-.08.19-.07,3.93-1.58c2.47-1,4.95-2,7.46-2.92a130.47,130.47,0,0,1,13.25-4.13c4.16-1.05,8.44-1.82,12.45-2.49,5.37-.91,10.23-1.61,14.85-2.14a205.75,205.75,0,0,1,23-1.55c1.44,0,2.89,0,4.34.08l3.06.1c3.34.1,6.78.22,10.17.47l1.89.13c4.2.3,8.55.61,12.78,1.31,3.61.6,7.47,1.3,12.54,2.27.9.17,1.81.36,2.71.55,1.19.25,2.37.49,3.56.71s2.2.36,3.3.53,2.21.34,3.3.55l1.31.24c2.78.5,5.66,1,8.45,1.72l3,.41.33.05c2.44.33,4.87.83,7.23,1.31,1.42.29,2.85.59,4.27.85l1.08.18c1.41.25,2.87.51,4.3.87a38.85,38.85,0,0,1,4.31,1.39c1.23.49,2.38,1.08,3.48,1.65l1.1.56c.44.23.91.44,1.37.64a17.75,17.75,0,0,1,2.3,1.17,1.09,1.09,0,0,1,.48-.11,1.06,1.06,0,0,1,.35.05,1.18,1.18,0,0,1,.76,1.36,1.77,1.77,0,0,1-.38,1.54,5.77,5.77,0,0,1-.2.85,16.34,16.34,0,0,1-1.38,3,3,3,0,0,1-.18.58,4.88,4.88,0,0,1-.4.83l-.09.18a3.26,3.26,0,0,1-.24.4l-.33.46-.92,1.24c-.06.24-.12.47-.2.71a23.73,23.73,0,0,1-1.65,4c-2.66,5.24-6.69,9.64-10.59,13.89l-.54.6a178.53,178.53,0,0,1-13.44,13.29l-.35.3-.34.31c-.62.77-1.22,1.54-1.81,2.32-1.17,1.53-2.46,3-3.71,4.45l-.14.16-.85,1-2.49,2.93-1.87,2.2c-1.38,1.61-2.78,3.23-4.2,4.81l-.47.57-.47.55c-.42.48-.82,1-1.22,1.45L2895,6806l-.85,1.09-1.92,2.5c-3.25,5.3-6.91,10.7-10.86,16-4.74,6.4-10.28,14-15.48,21.78-1.57,2.36-3.21,4.66-4.84,7-.85,1.2-1.7,2.38-2.53,3.58-2.92,4.18-5.22,7.66-7.26,10.92-.92,1.47-1.82,3-2.73,4.44-1.29,2.12-2.58,4.24-3.92,6.32-2.7,4.21-5.28,7.94-7.89,11.41a168.41,168.41,0,0,1-14.4,17.13l.52-.58c-2.38,2.45-4.88,4.82-7.3,7.14l-2.82,2.68-1.88,1.83c-2.47,2.39-5,4.86-7.69,7.15a231.21,231.21,0,0,1-20.81,16.42c-2.37,1.6-4.81,3.16-7.28,4.64-2.1,1.27-4.56,2.78-7,4.4l-.31.21c-4.75,3.19-9.67,6.48-14.71,9.4l.26-.18c-2.06,1.22-4.11,2.37-6.21,3.38-1.63.79-3.29,1.51-5,2.22l-.89.38-4.22,1.86c-1.25.55-2.5,1.11-3.76,1.65l-2.19,1.08-5.48,2.66-1.4.69c-2.4,1.18-4.8,2.36-7.23,3.46-3.22,1.45-6.36,2.78-9,3.89l-.22.09,0,0-.27.12-.45.19c-4.65,1.93-9.42,3.67-14.09,5.11-1.42.61-2.84,1.2-4.28,1.76a145.32,145.32,0,0,1-14.52,4.8l-.14.05-.57.16c-5.2,1.42-10.4,2.59-15.48,3.47-4.85.83-9.65,1.39-15,2-5.5.62-10.11,1-14.52,1.24-2.42.13-5,.2-8.39.2l-4.09,0" transform="translate(-2030.9 -192.63)"/><path class="cls-5" d="M2254.45,7919.15c1.37-4.17,2.69-8.36,4-12.55.34-.4.66-.81,1-1.22,3.74-5,5.35-11.1,7-17q1.18-4.36,2.32-8.74,2-7.55,3.89-15.1c5.53-17.13,10.44-34.46,16.43-51.42q1-2.74,2-5.47c3.52-9.52,7.15-19,10.24-28.65,2.95-9.2,5.66-18.48,8.5-27.71,1.85-6,3.64-12,5.42-18.06,4.34-10.89,8.41-22,13-35,2-5.58,4.16-11.18,6.29-16.6l1.57-4c.83-2.15,1.65-4.31,2.44-6.48,1.24-4.15,2.48-8.53,3.76-13.41,1.48-5.56,3.42-11.07,5.29-16.4l1.16-3.31-.07.23.32-.9a1.17,1.17,0,0,1,.07-.25l.12-.31.07-.22.08-.23,1.46-4.37c1.21-3.63,2.41-7.27,3.67-10.89l.61-1.8c2-5.77,4-11.55,6-17.32l2.9-8.26,2.56-7.28c1.64-4.84,3.11-9.81,4.53-14.64,1-3.34,2-6.67,3-10,2.64-8.37,5.51-16.58,8.7-25.67l1.39-4.1c2.38-7,4.83-14.28,7.52-21.33l.29-.74c2.91-7.63,5.92-15.52,8.68-23.34,3-9,5.53-17.82,7.59-25.28,1.53-5.51,3.2-11.08,4.8-16.46,1.07-3.61,2.15-7.21,3.2-10.83,1.55-5.38,2.93-10.91,4.28-16.25.86-3.42,1.72-6.86,2.63-10.28,2.69-10.08,5.33-18.89,8.07-26.9.83-2.37,1.69-4.73,2.54-7.09.58-1.58,1.15-3.15,1.72-4.73,2.75-8.13,5.24-16.73,7.61-26.27,1.81-7.25,4-14.52,6.06-21.55q.87-2.91,1.73-5.81c2.54-8.65,4.53-17.27,6.69-26.83,1.28-5.69,3-11.38,4.69-16.87,1-3.16,1.92-6.31,2.81-9.49,1.66-6,3.44-12,5.17-17.86s3.42-11.63,5.06-17.48c1.71-6.11,3.56-12.12,5.48-18.25,1-3.1,2.1-6.2,3.2-9.2l.44-1.19a92,92,0,0,1,4-9.15c.87-1.7,1.83-3.37,2.77-5,.83-1.42,1.65-2.85,2.43-4.31a27.9,27.9,0,0,1,3.21-4.67,19.33,19.33,0,0,1,2.85-2.66l.62-.52a11.55,11.55,0,0,1,3.56-2.39,10.73,10.73,0,0,1,3.67-.71,9.47,9.47,0,0,1,2.39.32,3.74,3.74,0,0,1,.84.26c2.31.93,4,2.59,5.47,5.38.14.21.27.42.4.64s.32.51.46.77a19.17,19.17,0,0,1,1.89,5.21,45.22,45.22,0,0,1,.88,6.08c.09.86.18,1.72.28,2.58.69,5.7,0,11.54-.71,17.19-.15,1.17-.28,2.34-.41,3.5-1.3,11.66-3.13,23.39-5.45,34.88-1.64,7.82-3.6,15.69-5.5,23.3l-1.2,4.8c-.89,3.62-1.86,7.23-2.83,10.83-1.54,5.69-3.12,11.58-4.38,17.45-1.37,6.91-3,14.92-5.26,22.75-.81,2.87-1.66,5.75-2.49,8.62-1.39,4.74-2.82,9.65-4.13,14.51-.77,2.88-1.5,5.77-2.23,8.66-1.23,4.84-2.49,9.84-4,14.72-1.91,6.46-4.21,12.89-6.42,19.12l-1.43,4-.1.22h0c-3.5,10.31-6.37,21-9.15,31.35-1.88,7.05-3.84,14.33-6,21.43l-2.52,8.31c-2,6.5-4,13-5.87,19.51-3.24,11-6.16,20.12-9.18,28.71-2.23,6.36-4.55,12.7-6.86,19.05-2.09,5.75-4.19,11.51-6.24,17.3l-1,2.73.36-1.15c-2.62,7.61-5.45,15.26-8.21,22.67-2.66,7.19-5.42,14.63-8,22-2.87,8.26-6.05,16.78-9.71,26.06-2.48,6.29-5.2,12.61-7.84,18.71l-2.49,5.8-1.43,3.35c-1.11,2.61-2.21,5.21-3.35,7.79s-2.23,4.88-3.37,7.31q-1.29,2.72-2.54,5.44l-.55,1.22c-3.42,7.49-6.95,15.25-10.72,22.72-.53,1.07-1.07,2.14-1.61,3.21-1.05,2.15-2.11,4.28-3.22,6.4h0l-1.34,2.64-1.05,2.05c-1.5,3.18-3,6.35-4.55,9.51-2.1,4.38-4.21,8.75-6.25,13.15-2.15,4.64-4.15,9.41-6.09,14l-1,2.45c-.52.71-1,1.43-1.51,2.14l.94-1.28c-2.68,3.65-5.23,7.37-7.88,11a135,135,0,0,0-10.75,16.78c-2.59,4.72-5.13,9.41-7.33,14.32l.34-.79c-.12.27-.24.54-.35.81v0c-1.91,4.43-3.67,8.86-5.29,13.39l-1,1.59c-2.68,4.11-5.09,8.23-7.18,12.25-.34.7-.68,1.41-1,2.12-.82,1.69-1.65,3.44-2.59,5.11-1.3,2.33-2.52,4.75-3.7,7.1l.22-.52-.22.5-.24.47.09-.25c-.76,1.62-1.59,3.21-2.42,4.79-.46,1.38-.92,2.77-1.37,4.15q-1.65,5.06-3.33,10.11l-2.08,6.3c-1,3.06-2.17,6.11-3.3,9.06-.88,2.33-1.77,4.66-2.6,7-.59,1.74-1.15,3.49-1.7,5.24l-.31.93c-.54,1.71-1.16,3.4-1.78,5.1l-.49,1.34c-.68,2.05-1.21,4.2-1.72,6.26-.22.92-.44,1.84-.68,2.74-.17.64-.31,1.28-.46,1.92s-.27,1.12-.41,1.67c-.34,1.32-.8,2.61-1.23,3.87l-.14.39-.26.74c-.81,2.41-1.43,4.57-1.9,6.61l-.37,1.69c-.35,1.59-.71,3.24-1.21,4.81-.41,1.3-.83,2.65-1.2,4a37.52,37.52,0,0,0-10,5.88l3-2a61.54,61.54,0,0,0-6.44,4.78c.12-.38.24-.76.37-1.14" transform="translate(-2030.9 -192.63)"/><path class="cls-5" d="M3486.73,5118.68l-1-.16q.17-7.4.4-14.8c2.24-8.44,1.95-17.88,1.79-26.51.8.49,1.59,1,2.36,1.51,1.25.85,2.49,1.66,3.69,2.56,2.21,1.65,4.75,3.85,6,6.35a23.48,23.48,0,0,1,2.23,5.72l.35.43a16.24,16.24,0,0,1,3.34,12,15.29,15.29,0,0,1-7.24,10.93,17.46,17.46,0,0,1-8.8,2.2,23.32,23.32,0,0,1-3.14-.22" transform="translate(-2030.9 -192.63)"/><path class="cls-5" d="M2310.52,7795.73c.37-4.58.8-9.15,1.24-13.72.25-2.71.51-5.4.85-8.1.24-1.87.57-3.75.7-5.63v0a5,5,0,0,0,0-.67,1.71,1.71,0,0,1-.38-1.32,1.77,1.77,0,0,1,2.94-1c1.21,1,1.32,3.06,1.57,4.46.49,2.69.86,5.4,1.15,8.11l.06.58c-.42.89-.84,1.78-1.25,2.69l.23-.53c.12-.27.24-.53.35-.8-.12.26-.23.53-.35.8l-.27.63-.15.33.15-.33,0-.1c-2.53,5.88-4.8,11.75-6.83,17.85l.9-2.69c-.34,1-.69,2-1,3a25.48,25.48,0,0,1,.06-3.6" transform="translate(-2030.9 -192.63)"/><path class="cls-5" d="M2254.45,7919.15c1.14-3.5,2.27-7,3.39-10.55a7.06,7.06,0,0,1,1.13-.35c.82-1.07,1.65-2.12,2.47-3.17a0,0,0,0,0,0,0,33.9,33.9,0,0,1,2-3.16,23,23,0,0,1,1.48-3.9c.38-.89.8-1.77,1.24-2.63a14.69,14.69,0,0,1,.35-2.76,9.91,9.91,0,0,1,.68-1.94,8.76,8.76,0,0,1-.83-2.25.64.64,0,0,0,0-.07q1.18-4.36,2.32-8.74,1.59-6,3.13-12.1c.1-.25.2-.48.31-.73,3.08-7,6.4-14,9.84-20.83s6.77-13.6,10.14-20.41c1.59-3.22,3.15-6.45,4.72-9.67q1-2.14,2.11-4.29a24.13,24.13,0,0,1,2.2-3.8c.19-1.24.38-2.48.58-3.72.18-1.08.37-2.13.56-3.2a13.61,13.61,0,0,1,2.12-5.51,7.69,7.69,0,0,1,5.6-3.05,132.05,132.05,0,0,1,.54-15.66,99,99,0,0,1,1.92-13.51c.21-2.45,4.19-2.44,4.38,0a52.05,52.05,0,0,1,.65,7.89c.19,2.91.34,5.81.53,8.72-.23.46-.43.92-.64,1.39.09-.2.17-.41.26-.61-.15.35-.31.7-.46,1,.07-.14.13-.28.2-.43-2.54,5.88-4.81,11.75-6.84,17.85l.9-2.69c-1,2.86-2,5.73-2.7,8.66-.81,3.22-1.46,6.5-2.11,9.76-.74,3.65-1.46,7.32-2.3,10.95-1.49,6.4-3.92,12.48-5.61,18.81-1.88,7-3.23,14.07-5.53,20.91,0-.1.07-.2.11-.31-.08.22-.15.44-.23.67.08-.23.15-.45.23-.67l0-.1v0a.49.49,0,0,0,0-.11s0-.08,0-.12h0v0h0a0,0,0,0,0,0,0c.08-.24.16-.47.25-.7-1.35,3.94-2.47,7.86-3.5,11.85a44.07,44.07,0,0,0-5.76,12.16c-.39.71-.77,1.42-1.18,2.13a92.28,92.28,0,0,0-5.35,8.38c-1.88,3.36-3.06,7.4-4.29,11.13l-.08,0a40.07,40.07,0,0,0-16.06,7.79l3-2a60.34,60.34,0,0,0-6.43,4.78c.11-.39.23-.76.36-1.14" transform="translate(-2030.9 -192.63)"/><path class="cls-5" d="M2254.45,7919.15c1.36-4.17,2.69-8.36,4-12.55.34-.4.66-.81,1-1.23,3.74-5,5.35-11.09,7-17q1.18-4.36,2.32-8.74,2-7.55,3.88-15.11c5.53-17.12,10.45-34.45,16.44-51.41a2.83,2.83,0,0,1,.11-.31.19.19,0,0,0,0,.08.73.73,0,0,0-.05.12.73.73,0,0,1,.05-.12c.06-.2.13-.38.19-.57q.85-2.34,1.72-4.67c1.94-5.24,3.91-10.47,5.81-15.73a8.93,8.93,0,0,1,2.44,7.24c-.37,3.12-1.86,6.08-3.17,8.89q-.39,1.82-.81,3.63c-.73,3.26-1.52,6.5-2.3,9.76q-1,4.24-2.1,8.46a8.51,8.51,0,0,1-.27,2.64c-.34,1.24-.69,2.47-1.1,3.68-.36,1-.74,2-1.13,3-1.81,6.45-3.67,12.89-5.51,19.34-.17,1.67-.39,3.35-.67,5q-1.59,9.6-3.56,19.14c.07-.33.14-.66.2-1l-1.23,6.11.21-1c-.5,2.53-1,5-1.54,7.56v.54c0,.3,0,.59,0,.88.05,1.93.09,3.86.14,5.79-1.12,2.64-2,5.48-2.86,8.16l-.09,0a40.1,40.1,0,0,0-16.05,7.79l3-2a61.54,61.54,0,0,0-6.44,4.78c.12-.39.24-.76.37-1.14" transform="translate(-2030.9 -192.63)"/><path class="cls-5" d="M2299.89,7783.24a13.39,13.39,0,0,1,.7,4.55,14.12,14.12,0,0,1-3,7.32c-1.28,1.76-2.54,3.53-3.84,5.28,2.12-5.69,4.21-11.39,6.15-17.15" transform="translate(-2030.9 -192.63)"/><path class="cls-5" d="M2304.38,7781.46a8.33,8.33,0,0,1-2.33-1.6,7.85,7.85,0,0,1-.75-.89h0c1.3-4.05,2.55-8.12,3.79-12.18.32.41.64.82,1,1.23.7.76,1.43,1.52,2.15,2.26.43.44.85.89,1.27,1.33a11.17,11.17,0,0,1,1.9,2.85,5.32,5.32,0,0,1-1.14,5.86,5.59,5.59,0,0,1-3.88,1.6,4.46,4.46,0,0,1-2-.45" transform="translate(-2030.9 -192.63)"/><path class="cls-5" d="M2299.33,7786.59a5.3,5.3,0,0,1-.55-.1q1.3-3.75,2.52-7.53,1-3,1.89-6l.27.56c.71,1.41,2.09,3.7,1.58,5.38,0,.06,0,.1,0,.15a9.82,9.82,0,0,1,.28,2.09,6.21,6.21,0,0,1-.77,2.89,5.2,5.2,0,0,1-4.6,2.6,4.87,4.87,0,0,1-.66,0" transform="translate(-2030.9 -192.63)"/><path class="cls-5" d="M2312.4,7783.13a.1.1,0,0,0,0,0,6.53,6.53,0,0,1-1.13-2.7l-.14-.1a6,6,0,0,1-2-3,5.88,5.88,0,0,1,2.49-6.37,24.53,24.53,0,0,1,5.85-2.66l1.2-.4a5,5,0,0,1,2-1.63q.36-.16.72-.3,1.2-.45,2.37-.93c.84-.33,1.67-.69,2.51-1-.52.92-1,1.85-1.54,2.79-2.59,4.71-5.13,9.4-7.34,14.32l.23-.53c.12-.27.24-.53.35-.8-.12.26-.23.53-.35.8l-.27.63-.15.33.15-.33,0-.1c-.58,1.36-1.16,2.73-1.72,4.1a5.45,5.45,0,0,1-3.3-2.1" transform="translate(-2030.9 -192.63)"/><path class="cls-5" d="M2309.8,7798.33c0,.14,0,.27,0,.41a62.42,62.42,0,0,1,1.53-10.81c.81-3.26,1.84-6.45,2.94-9.62l-.06.17c.1-.3.2-.6.29-.9v-.68a1.13,1.13,0,0,1,2.25,0v.64a.41.41,0,0,1,0,.11v0a20.39,20.39,0,0,1,0,4.62v0c0,.2,0,.41-.05.61-2.23,5.3-4.26,10.61-6.09,16.1l.9-2.69c-.62,1.86-1.27,3.72-1.85,5.61,0-1.19.08-2.38.16-3.57" transform="translate(-2030.9 -192.63)"/><path class="cls-5" d="M2273.31,7905.37a2.79,2.79,0,0,1,.3-2.2h0a12.85,12.85,0,0,1,2.09-2.73c.66-.73,1.33-1.44,2-2.15l.92-1-.7,1.24a47.2,47.2,0,0,0-3.4,8.42,2.82,2.82,0,0,1-1.21-1.62" transform="translate(-2030.9 -192.63)"/><path class="cls-5" d="M2296.2,7793.73a1.12,1.12,0,0,1,.89,1.09,3,3,0,0,1-.62,1.61,14.79,14.79,0,0,1-2,2.43l-.31.32c.67-1.82,1.34-3.63,2-5.45" transform="translate(-2030.9 -192.63)"/><path class="cls-5" d="M2297.51,7790.1a2.16,2.16,0,0,1,.08,1.74,10.4,10.4,0,0,1-1.6,2.46c.51-1.4,1-2.8,1.52-4.2" transform="translate(-2030.9 -192.63)"/><path class="cls-5" d="M2300.39,7781.76a1.19,1.19,0,0,1,1.09.87,1.22,1.22,0,0,1-.07.8,7.86,7.86,0,0,1-1.17,2.57l.1-.14-1,1.41c-.37.57-.79,1.12-1.2,1.67,0,0,0,0,0,0l0,0,0,0h0c-.14.2-.3.39-.46.58.92-2.58,1.82-5.17,2.68-7.78" transform="translate(-2030.9 -192.63)"/><path class="cls-5" d="M2301.2,7779.26c0,.53,0,1.07,0,1.6a.76.76,0,0,0,0-.15,10.65,10.65,0,0,1-1.29,5.62l.11-.24a25.09,25.09,0,0,1-2.44,3.86q1.91-5.31,3.64-10.69" transform="translate(-2030.9 -192.63)"/><path class="cls-5" d="M2254.45,7919.15c1.29-3.94,2.54-7.91,3.8-11.87.09,3.12.37,6.26.29,9.38q-.54.41-1.05.84l1.05-.69v0a54,54,0,0,0-4.46,3.44c.12-.38.24-.76.37-1.14" transform="translate(-2030.9 -192.63)"/><path class="cls-5" d="M2254.45,7919.15c.74-2.25,1.46-4.51,2.18-6.77l.09,1.81c.06,1.27.14,2.54.22,3.81-1,.75-2,1.5-2.85,2.29q.16-.57.36-1.14" transform="translate(-2030.9 -192.63)"/><path class="cls-5" d="M2254.45,7919.15l1.17-3.6c0,.31,0,.62.07.93v-.07c.06.81.12,1.61.19,2.4-.62.49-1.22,1-1.79,1.48q.16-.57.36-1.14" transform="translate(-2030.9 -192.63)"/><path class="cls-5" d="M3502.35,5113.46a31.9,31.9,0,0,1-5-.76,77,77,0,0,1-9.77-3,3.73,3.73,0,0,1-.81.15l-.78.06q.09-3.12.19-6.22c1.58-6,1.9-12.42,1.9-18.74a55.58,55.58,0,0,1,5.35,3.2l-.29-.21a17.27,17.27,0,0,1,2.9,2.05,5.69,5.69,0,0,1,1.67,3.14,5.27,5.27,0,0,1-.24,2.34c1.84,1,3.69,2.06,5.52,3.11.84.48,1.67,1,2.52,1.44a13.5,13.5,0,0,1,2.94,2,6.53,6.53,0,0,1,2,4.57,7.2,7.2,0,0,1-1,3.65,6.85,6.85,0,0,1-3.24,2.7,6.63,6.63,0,0,1-2.83.52c-.34,0-.68,0-1,0" transform="translate(-2030.9 -192.63)"/><path class="cls-5" d="M2316,7791.46a2,2,0,0,1-1-1.05,2,2,0,0,1,0-1.53c.72-2,1.61-3.94,2.49-5.86l.33-.72a1.62,1.62,0,0,1-1.09.07,1.6,1.6,0,0,1-1-2.13c.36-.92.79-1.81,1.18-2.71s.8-1.82,1.19-2.74c.81-1.91,1.64-3.82,2.44-5.74,1.68-4,3.41-8,5.11-12,.72-1.71,1.45-3.44,2.08-5.19.36-1,.76-2,1.13-3l.33-.94-1.06,2.08.06-.13-.16.33,0-.06c-.48.94-1,1.86-1.52,2.79s-1,1.82-1.53,2.71-1,1.74-1.49,2.61-1,1.74-1.43,2.62c-.13.37-.27.74-.41,1.1s-.38.95-.59,1.42-.49,1.08-1.09,1.24a1.14,1.14,0,0,1-1.42-1.08,7.08,7.08,0,0,1,.85-2.34c.19-.43.4-.84.61-1.25s.36-1,.54-1.51c0,0,0,.09-.05.13l.39-1.09s0,.09-.05.14c.16-.47.33-.95.5-1.41a.78.78,0,0,0,0,.14c.18-.55.37-1.09.57-1.63l0,.05c.22-.67.47-1.33.7-2l-.05.14c.71-2.07,1.48-4.11,2.23-6.16s1.49-4,2.24-6c1.49-3.93,3.05-7.84,4.7-11.7.43-1,.87-2.07,1.26-3.12a6.77,6.77,0,0,0,.2-.74.68.68,0,0,1,0,.15l0-.19h0a1.14,1.14,0,0,1,1.12-1.13,1.12,1.12,0,0,1,1.11,1.13,5.88,5.88,0,0,1-.48,1.94c-.34.92-.73,1.83-1.11,2.73q-1.22,2.85-2.36,5.73c-1.6,4-3.11,7.95-4.59,12,0,.07-.05.14-.08.22l.51-1s0,0,0,.05,0,0,0-.05l0-.08,0,.07.08-.16v0a82,82,0,0,0,3.35-7.63c.45-1.19.85-2.38,1.29-3.57.21-.57.42-1.14.66-1.71a4.21,4.21,0,0,1,1.06-1.83,1.14,1.14,0,0,1,1.25-.08,1.22,1.22,0,0,1,.58.72,4,4,0,0,1,.06,1.42,17.22,17.22,0,0,1-.31,1.77c-.29,1.24-.57,2.47-.91,3.68s-.74,2.61-1.11,3.91c-.16.56-.35,1.12-.52,1.67s-.33,1.1-.52,1.64c0,0,0,0,0,0-.7,2.11-1.42,4.21-2.19,6.3,0-.06,0-.11.07-.16-.31.85-.61,1.7-.94,2.54h0c-.15.45-.34.87-.5,1.31s-.23.61-.35.91c.55-1.1,1.11-2.21,1.68-3.31a.08.08,0,0,0,0,0l.1-.21.05-.1c.57-1.15,1.09-2.33,1.64-3.49.2-.4.39-.81.58-1.22.42-1.17.84-2.34,1.27-3.51,0,.09-.06.17-.08.25.41-1.18.83-2.37,1.27-3.55l0,.08c1-2.93,2.14-5.82,3.24-8.7.27-.79.56-1.56.86-2.33s.46-1.29.68-1.93c0,.07-.05.15-.07.23.16-.47.33-.94.5-1.41,0,.07,0,.15-.08.23.21-.61.42-1.21.64-1.81a1.84,1.84,0,0,1,1.74-1.32,1.86,1.86,0,0,1,1.8,2.12,5.32,5.32,0,0,1-.16.69c-.08.32-.18.64-.28.95-.21.65-.42,1.3-.64,1.94l.07-.23q-.27.84-.57,1.68l0-.06c-.06.16-.11.31-.16.46a.14.14,0,0,1,0-.06.36.36,0,0,1,0,.09.25.25,0,0,1,0,.07v0l-.66,1.9a.19.19,0,0,1,0-.07l0,.09v0a1,1,0,0,1-.05.16l0,.09v0c-.64,1.82-1.32,3.62-2,5.43v0a.17.17,0,0,1,0,.05l-.06.18a.36.36,0,0,1,0-.09c-.38,1.11-.79,2.22-1.17,3.34l.05-.17-.3.87s0,0,0,0c-.12.33-.23.67-.35,1l0-.1c-.11.33-.22.67-.34,1l.09-.26-.27.79v0l0,.1s0,.09,0,.15v0l-.11.3s0-.08,0-.11l-.27.78a1.27,1.27,0,0,1,.06-.18l-.27.78.06-.19-.25.73.09-.25-.26.74.09-.25-.3.86,0-.11c0,.05,0,.1,0,.15s0,0,0,0,0-.16.08-.24l-.06.19c-2.88,8.3-6.42,16.34-10.1,24.31-1.19,2.57-2.41,5.13-3.61,7.68-1.3,2.75-2.58,5.52-4,8.22a2,2,0,0,1-2.47.82" transform="translate(-2030.9 -192.63)"/><path class="cls-5" d="M2298.7,7845.87a2.6,2.6,0,0,1-1.47-3,63.64,63.64,0,0,1,2.13-6.19c.78-2.06,1.55-4.13,2.34-6.18,1.56-4.11,3.19-8.19,4.69-12.32.71-2,1.41-4,2.14-5.92s1.6-4.14,2.4-6.2c1.5-3.83,3.09-7.64,4.49-11.52s2.82-7.86,4.39-11.73c.79-2,1.62-3.92,2.43-5.87s1.57-3.87,2.38-5.81c1.6-3.81,3.23-7.6,4.64-11.49s2.73-7.49,4.06-11.24c.71-2,1.42-4,2.17-6s1.43-3.76,2.13-5.64c1.43-3.87,3-7.68,4.56-11.49,1.17-2.87,2.35-5.73,3.67-8.53.67-1.46,1.34-2.91,2-4.38s1.12-2.64,1.6-4a80.4,80.4,0,0,0,2.26-8.35v0a.09.09,0,0,1,0-.05l0-.1a.09.09,0,0,0,0,.05c.12-.68.24-1.36.33-2.05a.84.84,0,0,1-.18-.28,1.13,1.13,0,0,1,.52-1.43l0,0a1.29,1.29,0,0,1,1.56.15c.62.62.41,1.6.3,2.38-.21,1.5-.58,3-.93,4.44s-.73,2.82-1.15,4.21-1,2.88-1.52,4.33c0,0,0,0,0-.05s-.09.24-.13.37c0-.05,0-.1,0-.15,0,.14-.09.28-.13.41l0-.14c-.73,2.17-1.59,4.32-2.41,6.46s-1.59,4.19-2.34,6.31a1.34,1.34,0,0,0,.07-.18c-.07.21-.14.41-.22.62,0-.07.05-.13.07-.2l-.22.63a.64.64,0,0,1,0,.07,2.31,2.31,0,0,1-.1.28l-.08.23,0-.07c-.07.23-.15.46-.23.69a1.72,1.72,0,0,1,.07-.21c-.22.64-.43,1.28-.65,1.91,0-.07,0-.14.07-.21l-.33,1c0-.08.05-.15.07-.21l-.24.68s0,0,0-.05l-.06.16a.14.14,0,0,1,0,.06v0s0,0,0,.06a.09.09,0,0,0,0-.05l0,.11,0,.1,0-.05c-.1.31-.21.62-.33.94,0,0,0,0,0,0l-.06.16.08-.21c-.13.34-.24.69-.36,1v0a0,0,0,0,0,0,0l0,.07,0,0c-.65,1.93-1.25,3.87-1.85,5.81s-1.23,3.84-1.79,5.77c-1.13,3.89-2.27,7.77-3.5,11.62-.78,2.43-1.52,4.87-2.37,7.28a3,3,0,0,1,.11-.32l-.21.59a2.09,2.09,0,0,0,.08-.23c-.07.2-.14.4-.2.59,0-.1.07-.21.11-.32l-.21.6a.19.19,0,0,0,0-.07l0,.09-.24.71c0-.1.06-.21.1-.32-1.35,3.9-2.93,7.73-4.42,11.58s-3.06,7.68-4.53,11.55c-.85,2.24-1.65,4.49-2.45,6.74l.06-.17c-1.4,4.06-3,8.05-4.54,12s-3.13,8-4.65,12c-.72,1.92-1.42,3.85-2.17,5.76-.84,2.19-1.71,4.37-2.57,6.56-1.56,4-3.09,7.94-4.69,11.9-.41,1-.86,2-1.36,2.94a2.6,2.6,0,0,1-3.2,1.07" transform="translate(-2030.9 -192.63)"/><path class="cls-5" d="M2294.86,7849.52a2.53,2.53,0,0,1-2.3-3.47c.88-2.28,1.79-4.54,2.64-6.83s1.78-4.76,2.69-7.14c.42-1.11.85-2.22,1.28-3.34a3.18,3.18,0,0,1-.36-2.55,6.41,6.41,0,0,1,.33-.9c.19-.44.39-.88.59-1.32a2.91,2.91,0,0,1,.23-.42c1-2.28,1.88-4.65,2.76-7,0,.14-.1.28-.14.42,1.14-3.31,2.43-6.57,3.63-9.85q1.68-4.6,3.31-9.21c0-.1.07-.19.1-.28s0,0,0,.07v0s0,0,0,.05c.32-.94.66-1.88,1-2.83,0,0,0,.06,0,.09l.06-.19,0,.09c0-.07,0-.14.07-.21s0,0,0,0l-.05.12.33-.92,0,.08.09-.26a.76.76,0,0,0,0-.11s0,0,0,0,.05-.15.07-.22,0-.08,0-.12l0,.09.08-.21a.36.36,0,0,0,0,.09l.12-.34.09-.25a0,0,0,0,0,0,0c.06-.19.13-.38.2-.58l0,.09,0-.09.1-.27c0,.08-.07.17-.1.26a.56.56,0,0,0,0-.12l.12-.32v0h0a.36.36,0,0,0,0-.09c.24-.68.47-1.37.72-2.05a.25.25,0,0,0,0,.07s0-.08,0-.12l.09-.24-.06.15c.35-1,.72-2.06,1.08-3.08a2.19,2.19,0,0,1,.12-.33h0v0c.28-.79.56-1.58.83-2.37v0l0-.08.1-.27s0,0,0,0l.17-.48a.24.24,0,0,0,0,.08h0v0s0,0,0,0l0,.09.09-.28,0-.07s0,0,0,.05l.2-.57,0,.08c.13-.38.27-.76.41-1.15l-.05.12c.08-.22.16-.45.23-.67a0,0,0,0,1,0,0s0-.07,0-.11a2.25,2.25,0,0,0,.08-.24s0,0,0,.06a2.58,2.58,0,0,1,.08-.26.36.36,0,0,1,0,.11l0-.08c.55-1.62,1.09-3.24,1.6-4.87l.15-.48c.13-.44.26-.88.38-1.32s.29-1,.43-1.55a8.15,8.15,0,0,1,.69-2.18,2.53,2.53,0,0,1,4.46.29,4.56,4.56,0,0,1,.05,2.76c-.11.6-.23,1.21-.38,1.8-.32,1.24-.67,2.46-1,3.69s-.69,2.28-1,3.42-.68,2.31-1.08,3.45c0-.12.09-.23.13-.35l-.3,1c.87-1.84,1.75-3.69,2.61-5.54,2-4.18,3.93-8.35,5.59-12.67s3.18-8.41,4.73-12.63c1.45-4,2.94-7.95,4.37-11.94l0,.07.08-.23c1.21-3.5,2.32-7,3.44-10.55.57-1.8,1.14-3.6,1.73-5.4.67-2,1.4-4,2.1-6l-.05.14a111.89,111.89,0,0,0,3.32-12.35v0s0,0,0-.06a.19.19,0,0,0,0-.08v0c.22-1.12.44-2.25.55-3.38h0a7.48,7.48,0,0,0,0-.82,4.34,4.34,0,0,1-.06-.62,1.13,1.13,0,0,1,1.11-1.12,1.14,1.14,0,0,1,1.12,1h0v0a11,11,0,0,1,0,2c-.11,1.11-.35,2.22-.56,3.32-.46,2.33-1.08,4.63-1.68,6.93s-1.41,4.64-2.09,7-1.29,4.54-1.9,6.82c-1.17,4.39-2.26,8.8-3.48,13.17-.6,2.15-1.28,4.27-2,6.39s-1.41,4.38-2.13,6.57q-1.17,3.53-2.38,7c-.76,2.28-1.51,4.55-2.3,6.82a0,0,0,0,0,0,0c-1.53,4.46-3.38,8.78-5.3,13.09s-3.85,8.82-5.86,13.19-3.72,8.7-5.65,13c-1.86,4.16-3.62,8.35-5.66,12.42-.45.91-.9,1.82-1.37,2.72a3.36,3.36,0,0,0,.16-.33l-.37.75-.22.43c.05-.11.11-.21.16-.33-.17.36-.35.7-.52,1.05l-.15.28,0,0c-.16.3-.31.6-.46.9l.17-.33c-1.84,3.74-3.51,7.53-5.09,11.38-.79,1.93-1.58,3.85-2.44,5.74-.4.9-.82,1.79-1.25,2.68-.67,1.37-1.45,3.29-3.25,3.29h-.12" transform="translate(-2030.9 -192.63)"/><path class="cls-5" d="M2360.5,7683.45a1.13,1.13,0,0,1-.78-1.38q.3-1.15.57-2.31v0s0-.05,0-.07v-.05c0-.19.08-.39.11-.59a1.3,1.3,0,0,1,0-.52,1.17,1.17,0,0,1,1.12-.85,1.15,1.15,0,0,1,1.09,1.57c0,.4-.14.8-.22,1.19-.16.74-.35,1.47-.54,2.2a1.12,1.12,0,0,1-1.08.82,1.54,1.54,0,0,1-.3,0" transform="translate(-2030.9 -192.63)"/><path class="cls-5" d="M2271.42,7906.57c.42-1,.86-2.08,1.31-3.12,1-2.27,2-4.52,3.13-6.73-.07.15-.16.31-.23.46l1-2.08c1.19-2.39,2.31-4.85,3.37-7.31.53-1.23,1-2.49,1.51-3.74.63-1.62,1.35-3.22,1.93-4.87,0,0,0,0,0,0a.07.07,0,0,0,0-.05c.5-1.45,1-2.91,1.43-4.36.58-1.79,1.21-3.56,1.83-5.34-.05.14-.09.26-.13.4.81-2.36,1.58-4.74,2.28-7.14.81-2.74,1.86-5.36,2.92-8,1.75-4.43,3.61-8.81,5.19-13.31l0,.08c.74-2.12,1.55-4.22,2.33-6.33a66.13,66.13,0,0,1,2.91-6.64,0,0,0,0,1,0,0h0a.21.21,0,0,1,0-.06.09.09,0,0,1,0-.06l0-.08c1.54-3.08,3-6.22,4.23-9.43s2.32-6.2,3.43-9.32c0-.1.07-.2.11-.31s0,0,0,.05l.13-.37,0,.08c0-.11.08-.21.12-.33s0,0,0,0h0v0c0-.12.08-.23.13-.35v0l.3-.88h0l.36-1-.11.29.37-1.06c.71-2,1.4-4.09,2.16-6.11.68-1.86,1.36-3.72,2-5.6h0c.09-.24.17-.49.26-.74l.1-.27,0,0,0-.07a2,2,0,0,0,.08-.22.36.36,0,0,1,0,.09c1.73-5,4-9.89,5.81-14.9,1-2.64,2-5.28,3-7.9s2.19-5.38,3.22-8.11c1.94-5.16,3.78-10.38,5.61-15.58,1.79-5,3.8-10,5.7-15,1-2.59,1.85-5.21,2.92-7.77s2.28-5.13,3.49-7.67c2.31-4.87,4.52-9.79,6.37-14.85l.15-.41s0,0,0,.05a.36.36,0,0,1,0-.11s0-.05,0-.07h0a.1.1,0,0,0,0,0h0c0-.11.07-.22.12-.33a.19.19,0,0,0,0,.07s0-.08,0-.12,0-.05,0-.07h0c.06-.2.13-.4.2-.6h0c1.08-3.16,2-6.36,2.85-9.58q.71-2.58,1.51-5.12c.57-1.81,1.25-3.57,1.88-5.35a.08.08,0,0,0,0,0,.38.38,0,0,1,0-.1h0c.06-.17.11-.35.18-.52a.06.06,0,0,0,0,0,.56.56,0,0,0,0-.12c1.25-3.72,2.39-7.47,3.52-11.24q.81-2.71,1.59-5.44c.43-1.47,1-2.92,1.31-4.42a.64.64,0,0,0,0-.2,1.54,1.54,0,0,1-.15-.94,1.59,1.59,0,0,1,1.78-1.35,1.59,1.59,0,0,1,.8,2.8c-.05.13-.11.27-.15.4h0l0,.08s0,0,0,.05a.76.76,0,0,1,0,.11c-1.71,5-2.87,10.23-4.28,15.34-1.51,5.45-3.48,10.75-4.82,16.24-.65,2.67-1.24,5.35-1.95,8s-1.53,5.15-2.44,7.68c-1.83,5.14-4.08,10.12-6.28,15.11-1,2.24-1.92,4.49-2.73,6.79a.2.2,0,0,0,0-.09c0,.08-.05.16-.07.24l0,0,0,0-.21.58.09-.27c-.88,2.59-1.72,5.21-2.63,7.8,0,.14-.1.29-.14.43l0-.13-.09.27h0c0,.13-.09.26-.13.39l-.34.95s0,0,0,0l0,.12s0,0,0,0v0c-.16.48-.31.95-.48,1.42,0-.1.07-.19.1-.29-.51,1.47-1,2.93-1.55,4.39l0-.09,0,.11c-2.29,6.71-4.28,13.52-6.62,20.22l.12-.35-.14.39h0a1,1,0,0,1,0,.1,0,0,0,0,1,0,0c-1.29,3.77-2.76,7.48-4.12,11.21l-.33.94v0c-.06.19-.12.37-.19.57-.61,1.84-1.24,3.69-1.88,5.53h0a.24.24,0,0,1,0,.08c0,.09-.07.19-.1.28h0c-1.34,3.84-3,7.57-4.35,11.41l0,.06h0v0h0s0,0,0,0a.21.21,0,0,0,0,.06h0c0,.15-.09.28-.13.41h0s0,0,0,0a.88.88,0,0,0,0,.15v0c-.36,1.06-.72,2.11-1.09,3.17-.1.32-.22.64-.33,1-.44,1.27-.9,2.53-1.34,3.8,0-.13.09-.26.14-.38-.9,2.59-1.68,5.23-2.52,7.85s-1.6,4.93-2.42,7.38c-.93,2.74-1.73,5.51-2.76,8.21-.9,2.36-1.93,4.67-3,7-.68,1.52-1.3,3.06-1.85,4.64-1.16,3.48-2.24,7-3.45,10.47l.18-.49c-.88,2.53-1.79,5-2.71,7.55-1,2.79-2.11,5.55-3.1,8.34-.66,2-1.15,4.11-1.72,6.17a54.06,54.06,0,0,0-4.34,5,42,42,0,0,0-7.17,14c-.39.72-.77,1.44-1.18,2.14a92.48,92.48,0,0,0-5.35,8.39c-1.88,3.34-3.06,7.39-4.28,11.12l-.08,0h.05s0,0,0,0,0,0,0,0l-1,.27.93-.28h0c-1,.24-2,.52-3,.85-.31-1.38.39-2.75.91-4" transform="translate(-2030.9 -192.63)"/><path class="cls-5" d="M2299.52,7838a3.12,3.12,0,0,1-1.66-1.65,3.37,3.37,0,0,1,0-2.42c1.61-4.6,3.59-9.08,5.63-13.5.92-2,1.79-4,2.59-6.07s1.58-4.3,2.38-6.45,1.58-4.16,2.34-6.26c.83-2.26,1.65-4.52,2.52-6.76,1.63-4.12,3.24-8.25,5.06-12.29.92-2,1.88-4,2.84-6.05s1.88-4.17,2.85-6.24,2-4.24,2.95-6.4l2.69-6.27c.94-2.2,1.91-4.4,2.84-6.6.82-2,1.56-4,2.36-6s1.75-4.07,2.67-6.08,1.84-4.13,2.7-6.22c1.15-2.8,2.29-5.59,3.54-8.34.68-1.49,1.35-3,2.09-4.44.66-1.31,1.33-2.6,2-3.89.07-.13.13-.27.2-.4l-.16.31c2-4.08,3.85-8.26,5.63-12.45.85-2,1.66-4.05,2.52-6.06s1.83-4.15,2.7-6.26c.6-1.45,1.14-2.94,1.66-4.43,0,0,0,.11-.06.15.11-.31.21-.62.33-.92a.36.36,0,0,0,0,.09l.07-.19,0,.1.42-1.2a1.72,1.72,0,0,0-.07.21c.06-.17.11-.34.17-.5s0,0,0,0l0,.08.05-.14s0,0,0-.05v0l.24-.68a1.59,1.59,0,0,0-.07.2c.07-.22.15-.43.23-.65h0l.09-.24a.36.36,0,0,0,0,.09c.09-.26.19-.52.27-.78l0,.11a1.35,1.35,0,0,1,.08-.24h0v0l.06-.17,0,.09.23-.66,0,.07c.08-.21.15-.43.23-.64,0,0,0,0,0,.06l.25-.72a.06.06,0,0,0,0,0c.15-.44.29-.88.44-1.31v0s0,0,0-.05l0-.13a.25.25,0,0,0,0,.07c.16-.5.34-1,.51-1.5a.14.14,0,0,1,0,.06c.06-.16.11-.33.17-.49l0,0,.48-1.35c0,.06,0,.11-.05.16.9-2.61,1.92-5.19,2.88-7.78s2.26-5.2,3.22-7.86c.16-.49.3-1,.42-1.48.05-.33.08-.66.11-1v.15c0-.27,0-.53,0-.79a1.12,1.12,0,0,1,2.24,0,13.24,13.24,0,0,1-.47,3.13,31.87,31.87,0,0,1-1.27,3.37c-1,2.29-2,4.56-2.8,6.91-1.25,3.82-2.31,7.71-3.34,11.59-.51,1.94-1,3.89-1.53,5.82s-1.11,3.77-1.76,5.63a.17.17,0,0,1,0-.05,1.21,1.21,0,0,0-.05.14l0-.07-.06.17,0,0c-.55,1.57-1.14,3.12-1.71,4.67s-1.05,3-1.6,4.47l0-.08q-2.23,6.48-4.7,12.89c-.81,2.14-1.76,4.23-2.72,6.32s-1.83,4.28-2.67,6.46c-1.63,4.26-3.18,8.54-4.93,12.74-.85,2-1.75,4-2.54,6.09s-1.48,4-2.29,6c-.88,2.17-1.82,4.33-2.73,6.49s-1.78,4.3-2.71,6.43-1.91,4.21-2.87,6.31-1.85,4.11-2.81,6.15-2,4.23-3,6.35c-.9,2-1.73,4-2.57,6-1.77,4.22-3.38,8.51-5,12.79s-3.23,8.57-4.9,12.83-3.81,8.35-5.64,12.55c-1,2.41-2,4.82-3.06,7.25a3.14,3.14,0,0,1-2.88,1.89,3,3,0,0,1-1.18-.24" transform="translate(-2030.9 -192.63)"/><path class="cls-5" d="M2252.91,7935.85a1.91,1.91,0,0,1-.19-1.44,2,2,0,0,1,.82-1.08l-.1.06.32-.24h0l.07-.06,0,0,.05-.05h0c.15-.13.32-.26.47-.4l-.09.08.47-.42-.18.16a11.68,11.68,0,0,0,1-1c.43-.51.88-1,1.32-1.48a.3.3,0,0,0-.08.08c.33-.38.62-.78,1-1.14s.52-.49.76-.76h0l.11-.13-.11.13c.46-.53.95-1,1.43-1.56a1.14,1.14,0,0,0,.11-.11l0,0h0l.67-.78s0,0,0,0l.1-.12c.05-.06.1-.13.16-.19s-.09.1-.13.15h0l0,0,.15-.18h0c.51-.6,1-1.21,1.51-1.8l0,0,0,0v0l.14-.16,0,0,0,0a1.27,1.27,0,0,0,.11-.13l1.37-1.5h0l.27-.31,0,.06.08-.09h0s0,0,0,0,.25-.28.37-.42h0l0,0-.11.13.15-.17h0l0,0h0a.12.12,0,0,0,.05-.05s0,0,0,0l0,0c.81-.93,1.68-1.83,2.54-2.72.38-.37.77-.72,1.14-1.09s.9-.89,1.37-1.29h0c.63-.57,1.31-1.09,2-1.62q-1,2.73-1.87,5.49a31,31,0,0,0-2,4.34c-.34.34-.68.69-1,1s-.92.73-1.36,1.11-.63.62-.93.94c0,0,0,0,0,0l.12-.13-.09.09,0,0-.09.09s0,0,0,0h0s0,0,0,0h0s0,0,0,0h0c-.78,1-1.45,2-2.27,2.93.06-.06.11-.13.17-.2l-.5.59,0,0-.12.14h0l0,0,0,0h0l-.05.05-.06.08h0c-.07.09-.15.17-.22.25l.18-.19c-.13.16-.27.31-.41.47-.33.36-.67.69-1,1l0,0c-.86.78-1.66,1.63-2.52,2.41a21.74,21.74,0,0,1-2.5,2,1.6,1.6,0,0,1-.9.26,1.94,1.94,0,0,1-1.66-.94" transform="translate(-2030.9 -192.63)"/><path class="cls-5" d="M2252.51,7934.88c0-.4,0-.79,0-1.19v0c0-.05,0-.1,0-.15h0c0-.34,0-.68,0-1a10.89,10.89,0,0,1-.15-1.4v.07l-.09-1.26v0s0-.08,0-.12a.28.28,0,0,0,0-.09v0c-.07-.87-.17-1.74-.18-2.61,0-1.14.07-2.3.14-3.45,0,.11,0,.23,0,.33,0-.23,0-.48,0-.71l0,.34c0-.23,0-.47,0-.7,0,.12,0,.24,0,.37a12.78,12.78,0,0,1,.27-2,44.69,44.69,0,0,1,1.47-4.41l0,.09c.27-.77.54-1.54.88-2.29s.67-1.38,1-2.08a12.43,12.43,0,0,1,1.69-2.91,4.7,4.7,0,0,1,1.84-1.44,4.24,4.24,0,0,1,3.19,0,4,4,0,0,1,2,5.35,20.1,20.1,0,0,1-1.79,2.61l-.14.21a1.63,1.63,0,0,0,.11-.17.05.05,0,0,0,0,0h0c-.78,1.14-1.61,2.25-2.4,3.4l.12-.18-.17.25-.09.13a.61.61,0,0,1,.07-.1c-.41.61-.8,1.21-1.16,1.84s-.56,1.11-.9,1.64c-.47.73-1,1.4-1.52,2.12h0c-.08.13-.16.26-.23.39l-.12.31c-.11.34-.23.68-.34,1a18,18,0,0,0-.52,1.77c-.11.62-.17,1.25-.3,1.87s-.31,1.25-.47,1.88c0,.43,0,.86-.06,1.3v0a.17.17,0,0,1,0,.07v0c0,.29,0,.58,0,.87a1.12,1.12,0,0,1-2.24,0" transform="translate(-2030.9 -192.63)"/><path class="cls-5" d="M2252.56,7931.91a4.05,4.05,0,0,1-1.13-2.72,5.77,5.77,0,0,1,1.56-3.64c.59-.79,1.19-1.57,1.79-2.34,1.27-1.67,2.57-3.3,3.94-4.87l.3-.33a2.61,2.61,0,0,1,.27-.31c.77-.89,1.48-1.86,2.3-2.72s1.56-1.64,2.34-2.47c1.37-1.58,2.81-3.15,4-4.86.11-.18.21-.34.31-.52l0-.12a1.12,1.12,0,0,1,1.12-1.06h.19a3.46,3.46,0,0,1,1.85-1.33,3.21,3.21,0,0,1,3.15.94,2.25,2.25,0,0,1,.36-.06c-.66,2-1.26,3.94-1.91,5.79-1,2.74-2,5.49-2.9,8.27a29.61,29.61,0,0,0-1.75,3.67c-.3.35-.61.69-.94,1a14.43,14.43,0,0,1-4.05,2.86l-.17.14-.57.52a2.34,2.34,0,0,1-2.25.57l-.74,1.11a9.47,9.47,0,0,1-2.08,2.78h0a3.79,3.79,0,0,1-2.36.82,3.84,3.84,0,0,1-2.72-1.13" transform="translate(-2030.9 -192.63)"/><path class="cls-5" d="M2252,7934.5c0-1.7-.05-3.4-.05-5.1h0v0l0-.64c0,.05,0,.1,0,.16a13.57,13.57,0,0,1,.18-3.6v0a5830688495.18,5830688495.18,0,0,0,0-.1v0a14,14,0,0,1,.43-1.72c.18-.57.44-1.09.65-1.64v0a.43.43,0,0,1,0-.05l.1-.27a1.46,1.46,0,0,0-.07.19,11.19,11.19,0,0,1,.65-1.46s0,0,0,0l0-.07.07-.13,0,.05a3.79,3.79,0,0,0,.18-.42c.18-.54.29-1.1.43-1.64a10.57,10.57,0,0,1,.81-2.11l0,0,.12-.23,0,.06c.09-.15.16-.3.24-.46a.83.83,0,0,1-.07.13c.34-.67.64-1.36,1-2,0,.09-.09.18-.14.26.11-.23.23-.45.35-.66.3-.59.63-1.16,1-1.73s.71-1.32,1.05-2c.44-.93.76-1.92,1.18-2.85a35.9,35.9,0,0,1,2.51-4.44,2.6,2.6,0,1,1,4.49,2.63c-.66,1.07-1.24,2.18-1.87,3.27-.51.9-1.06,1.78-1.54,2.71a27,27,0,0,1-2.14,3.78l.17-.25-.12.18s0,0,0,0c-.12.19-.25.39-.39.59l.17-.25-.2.28-.19.29-.31.44-.09.13,0,0,0,0,0,0v0a.21.21,0,0,1,0,.06s0,0,0,0h0l0,0-.16.23.1-.15c-.25.38-.51.75-.77,1.12,0-.08.1-.15.15-.24s-.07.11-.1.16c-.38.57-.76,1.13-1.15,1.69-.12.19-.23.38-.34.57s-.27.55-.41.83v0l-.09.17,0-.06h0s0,0,0,0h0l0,0a.31.31,0,0,0,0,.1l-.06.11s0,0,0,0a20.32,20.32,0,0,1-1.19,2.08.83.83,0,0,1,.08-.12c-.15.23-.3.47-.43.71l.09-.18c-.28.56-.57,1.14-.79,1.72s-.38,1.18-.53,1.78c-.2.8-.48,1.57-.65,2.38a.9.9,0,0,0,0-.16,6.63,6.63,0,0,0-.11.76c0,1.7.05,3.41.05,5.11a1.12,1.12,0,0,1-2.23,0" transform="translate(-2030.9 -192.63)"/><path class="cls-5" d="M2263.22,7922.66a2.78,2.78,0,0,1-.68-2.69,4.27,4.27,0,0,1,.71-1.31l.76-1.07,0,0c.31-.47.61-.94.92-1.4l0,0c.09-.14.18-.29.28-.42l-.18.27c.46-.68.94-1.33,1.41-2l.22-.33-.18.27c.35-.53.68-1.08,1-1.61h0l.27-.42c.2-.32.39-.65.58-1,.8-1.42,1.49-2.89,2.28-4.31s1.72-2.65,2.47-4.06c.43-.87.84-1.76,1.27-2.64l-.15.33c.27-.56.56-1.12.84-1.67l0,.09.06-.11,0,.09.07-.15.1-.18a.16.16,0,0,0,0,.07c.59-1.23,1.13-2.47,1.59-3.74.55-1.66,1-3.36,1.49-5,.6-1.91,1.25-3.8,1.87-5.7a2.81,2.81,0,0,1,5.39-.12c.41-.65.81-1.32,1.17-2l0,.08a.83.83,0,0,1,.07-.13l.06-.11s0,0,0,.05c.8-1.66,1.44-3.4,2.35-5,.45-.8.92-1.56,1.39-2.34l.6-1a1.13,1.13,0,0,1-.14-1.1,4.44,4.44,0,0,1,.42-.73s0,0,0-.05v0h0a28.11,28.11,0,0,0,1.25-3.14s0,0,0,0l.09-.24s0,.09,0,.13c.11-.32.24-.65.33-1a1.12,1.12,0,0,1,1.25-.93l.21.05h0c.2-.54.34-1.05.89-1.33a1.12,1.12,0,0,1,1.51.74,2.27,2.27,0,0,1-.28,1.37c-.15.41-.31.81-.46,1.21l0-.05a1.46,1.46,0,0,0-.07.19h0l-.06.14,0,0a28.67,28.67,0,0,0-.94,3.12,13.89,13.89,0,0,1-1.23,3.37h0l0,.05a.41.41,0,0,0,0,.09l0-.06c-.36.74-.68,1.49-1,2.24s-.58,1.34-.84,2l-.06.19c0-.09,0-.17.08-.25-.32,1-.59,1.93-.95,2.88a26.44,26.44,0,0,1-1.33,2.92l0,0,0,.05,0,0h0v0l0,0c-.38.78-.71,1.57-1.13,2.33s-.86,1.63-1.3,2.43-.89,1.59-1.37,2.36-1,1.59-1.45,2.43l-.33.67s0,0,0,0c-.38.78-.82,1.52-1.26,2.25s-.77,1.37-1.14,2.06a40.87,40.87,0,0,1-2.62,3.77c-.54.83-1,1.7-1.47,2.56-.57,1-1.2,2-1.82,3s-1.21,2-1.82,3a20,20,0,0,1-1.52,2.24,14.23,14.23,0,0,0-.9,1.15l.18-.27-.27.39h0a1.71,1.71,0,0,1,.11-.14l-.15.21,0,0,0,0-.07.1,0,0c-.12.19-.24.39-.37.57l-.12.18.09-.14-.18.26h0c-.47.67-1,1.31-1.43,2l-.13.19h0a24.25,24.25,0,0,0-1.3,2.19c-.06.14-.13.27-.19.4a2.92,2.92,0,0,1-1.93,1.79v0a2.44,2.44,0,0,1-.71.1,2.56,2.56,0,0,1-1.83-.75" transform="translate(-2030.9 -192.63)"/></g></svg>